<?xml version="1.0" encoding="utf-8"?>
<!-- Generator: Adobe Illustrator 22.1.0, SVG Export Plug-In . SVG Version: 6.00 Build 0)  -->
<svg version="1.1" id="Layer_1" xmlns="http://www.w3.org/2000/svg" xmlns:xlink="http://www.w3.org/1999/xlink" x="0px" y="0px"
	 viewBox="0 0 500 500" style="enable-background:new 0 0 500 500;" xml:space="preserve">
<style type="text/css">
	.st0{fill:#4DBE88;}
	.st1{fill:#FFF6E2;}
	.st2{fill:#47AA78;}
	.st3{opacity:0.8;fill:#3A9769;}
	.st4{fill:#BA3100;}
	.st5{fill:#F77D2A;}
	.st6{fill:#FFBFA4;}
	.st7{opacity:0.76;fill:#FFB654;}
	.st8{fill:#FFDABF;}
	.st9{fill:#BE520A;}
	.st10{fill:none;stroke:#BA3100;stroke-width:1.5047;stroke-miterlimit:10;}
	.st11{fill:#E1671B;}
	.st12{fill:#CD3E00;}
	.st13{fill:#FFF0D0;}
	.st14{fill:#FAE1AE;}
	.st15{fill:#5C934D;}
	.st16{fill:#72C85A;}
	.st17{fill:#4F8441;}
	.st18{fill:#9A2403;}
</style>
<circle class="st0" cx="251.271" cy="250.624" r="244.729"/>
<path class="st1" d="M103.704,110.122c0,2.436-5.35,7.598-9.198,4.41c-3.912-3.241-9.198-1.975-9.198-4.41s5.446,0.828,10.148-1.096
	C100.36,107.02,103.704,107.686,103.704,110.122z"/>
<circle class="st2" cx="251.271" cy="250.624" r="234.761"/>
<path class="st1" d="M125.724,77.894c2.317,0.75,7.67-12.259,7.67-8.111c0,5.08-11.019,26.363-13.337,25.613
	c-2.317-0.75,2.465-4.927,2.084-9.992C121.743,80.12,123.407,77.144,125.724,77.894z"/>
<path class="st1" d="M88.441,131.986c2.34,0.675,10.194-2.231,6.065,0.583c-4.198,2.861-10.177,9.531-12.517,8.856
	c-2.34-0.675,2.304-5.004,1.759-10.054C83.179,126.103,86.1,131.311,88.441,131.986z"/>
<path class="st1" d="M81.535,170.026c1.681,0.485,6.991-0.46,4.281,0.676c-2.755,1.155-6.514,4.09-8.195,3.605
	c-1.681-0.485,1.294-2.341,0.59-4.887C77.477,166.765,79.854,169.541,81.535,170.026z"/>
<path class="st1" d="M108.067,137.307c1.681,0.485,6.214,2.011,3.504,3.147c-2.755,1.155-6.514,4.09-8.195,3.605
	c-1.681-0.485,1.294-2.341,0.59-4.887C103.233,136.516,106.386,136.822,108.067,137.307z"/>
<path class="st1" d="M41.768,177.264c2.431,0.158,17.67-8.697,14.239-5.065c-3.488,3.693-16.091,15.824-18.521,15.666
	c-2.431-0.158,1.18-5.381-0.434-10.198C35.368,172.643,39.337,177.105,41.768,177.264z"/>
<path class="st1" d="M117.26,182.902c0,2.436-5.35,7.598-9.198,4.41c-3.912-3.241-9.198-1.975-9.198-4.41
	c0-2.436,5.446,0.828,10.148-1.096C113.917,179.801,117.26,180.467,117.26,182.902z"/>
<path class="st1" d="M114.366,211.232c2.317,0.75,7.67-12.259,7.67-8.111c0,5.08-11.019,26.363-13.337,25.613
	c-2.317-0.75,2.465-4.927,2.084-9.992C110.385,213.458,112.049,210.482,114.366,211.232z"/>
<path class="st1" d="M61.13,210.308c2.34,0.675,10.194-2.231,6.065,0.583c-4.198,2.861-10.177,9.531-12.517,8.856
	c-2.34-0.675,2.304-5.004,1.759-10.054C55.868,204.424,58.79,209.633,61.13,210.308z"/>
<path class="st1" d="M84.864,249.147c1.681,0.485,6.991-0.46,4.281,0.676c-2.755,1.155-6.514,4.09-8.195,3.605
	c-1.681-0.485,1.294-2.341,0.59-4.887C80.807,245.887,83.184,248.662,84.864,249.147z"/>
<path class="st1" d="M95.397,228.735c1.681,0.485,6.214,2.011,3.504,3.147c-2.755,1.155-6.514,4.09-8.195,3.605
	c-1.681-0.485,1.294-2.341,0.59-4.887C90.563,227.945,93.716,228.25,95.397,228.735z"/>
<path class="st1" d="M32.996,264.766c1.113-2.167-0.943-19.672,1.023-15.078c1.999,4.67,8.109,21.06,6.996,23.227
	c-1.113,2.167-4.466-3.225-9.527-3.662C26.209,268.797,31.883,266.933,32.996,264.766z"/>
<path class="st1" d="M180.018,112.23c0,2.436-5.35,7.598-9.198,4.41c-3.912-3.241-9.198-1.975-9.198-4.41s5.446,0.828,10.148-1.096
	C176.675,109.128,180.018,109.794,180.018,112.23z"/>
<path class="st1" d="M251.411,97.592c2.317,0.75,7.67-12.259,7.67-8.111c0,5.08-11.019,26.363-13.337,25.613
	c-2.317-0.75,2.465-4.927,2.084-9.992C247.43,99.818,249.094,96.842,251.411,97.592z"/>
<path class="st1" d="M196.057,148.109c2.34,0.675,10.194-2.231,6.065,0.583c-4.198,2.861-10.177,9.531-12.517,8.856
	c-2.34-0.675,2.304-5.004,1.759-10.054C190.795,142.226,193.716,147.434,196.057,148.109z"/>
<path class="st1" d="M205.15,173.841c1.681,0.485,6.991-0.46,4.281,0.676c-2.755,1.155-6.514,4.09-8.195,3.605
	c-1.681-0.485,1.294-2.341,0.59-4.886C201.093,170.581,203.47,173.357,205.15,173.841z"/>
<path class="st1" d="M215.683,153.429c1.681,0.485,6.214,2.011,3.504,3.147c-2.755,1.155-6.514,4.09-8.195,3.605
	c-1.681-0.485,1.294-2.341,0.59-4.886C210.849,152.639,214.002,152.945,215.683,153.429z"/>
<path class="st1" d="M142.088,125.277c1.113-2.167-0.943-19.672,1.023-15.078c1.999,4.67,8.109,21.06,6.996,23.227
	c-1.113,2.167-4.466-3.225-9.527-3.662C135.302,129.308,140.975,127.444,142.088,125.277z"/>
<path class="st1" d="M211.834,45.641c0,2.436-5.35,7.598-9.198,4.41c-3.912-3.241-9.198-1.975-9.198-4.41
	c0-2.436,5.446,0.828,10.148-1.096C208.491,42.539,211.834,43.205,211.834,45.641z"/>
<path class="st1" d="M235.167,55.323c2.317,0.75,7.67-12.259,7.67-8.111c0,5.08-11.019,26.363-13.337,25.613
	s2.465-4.927,2.084-9.992C231.186,57.549,232.849,54.573,235.167,55.323z"/>
<path class="st1" d="M196.571,67.505c2.34,0.675,10.194-2.231,6.065,0.583c-4.198,2.861-10.177,9.531-12.517,8.856
	c-2.34-0.675,2.304-5.004,1.759-10.054C191.309,61.622,194.231,66.83,196.571,67.505z"/>
<path class="st1" d="M205.665,93.237c1.681,0.485,6.991-0.46,4.281,0.676c-2.755,1.155-6.514,4.09-8.195,3.605
	c-1.681-0.485,1.294-2.341,0.59-4.887C201.608,89.977,203.984,92.753,205.665,93.237z"/>
<path class="st1" d="M216.197,72.825c1.681,0.485,6.214,2.011,3.504,3.147c-2.755,1.155-6.514,4.09-8.195,3.605
	c-1.681-0.485,1.294-2.341,0.59-4.887C211.363,72.035,214.517,72.341,216.197,72.825z"/>
<path class="st1" d="M159.749,73.923c1.113-2.167-0.943-19.672,1.023-15.078c1.999,4.67,8.109,21.06,6.996,23.227
	c-1.113,2.167-4.466-3.225-9.527-3.662C152.963,77.953,158.637,76.089,159.749,73.923z"/>
<path class="st1" d="M306.722,43.471c0,2.436-5.35,7.598-9.198,4.41c-3.912-3.241-9.198-1.975-9.198-4.41
	c0-2.436,5.446,0.828,10.148-1.096C303.379,40.369,306.722,41.035,306.722,43.471z"/>
<path class="st1" d="M330.055,53.153c2.317,0.75,7.67-12.259,7.67-8.111c0,5.08-11.019,26.363-13.337,25.613
	c-2.317-0.75,2.465-4.927,2.084-9.992C326.074,55.379,327.738,52.403,330.055,53.153z"/>
<path class="st1" d="M291.46,65.335c2.34,0.675,10.194-2.231,6.065,0.583c-4.198,2.861-10.177,9.531-12.517,8.856
	c-2.34-0.675,2.305-5.004,1.759-10.054C286.198,59.452,289.119,64.66,291.46,65.335z"/>
<path class="st1" d="M300.553,91.068c1.681,0.485,6.991-0.46,4.281,0.676c-2.755,1.155-6.514,4.09-8.195,3.605
	c-1.681-0.485,1.294-2.341,0.59-4.887C296.496,87.807,298.872,90.583,300.553,91.068z"/>
<path class="st1" d="M311.085,70.656c1.681,0.485,6.214,2.011,3.504,3.147c-2.755,1.155-6.514,4.09-8.195,3.605
	s1.294-2.341,0.59-4.887C306.251,69.865,309.405,70.171,311.085,70.656z"/>
<path class="st1" d="M262.682,46.954c1.113-2.167-0.943-19.672,1.023-15.078c1.999,4.67,8.109,21.06,6.996,23.227
	c-1.113,2.167-4.466-3.225-9.527-3.662C255.896,50.984,261.569,49.12,262.682,46.954z"/>
<path class="st1" d="M401.532,253.007c0,2.436-5.35,7.598-9.198,4.41c-3.912-3.241-9.198-1.975-9.198-4.41
	c0-2.436,5.446,0.828,10.148-1.096C398.189,249.905,401.532,250.571,401.532,253.007z"/>
<path class="st1" d="M453.403,244.347c2.317,0.75,7.67-12.259,7.67-8.111c0,5.08-11.019,26.363-13.337,25.613
	c-2.317-0.75,2.465-4.927,2.084-9.992C449.422,246.573,451.086,243.597,453.403,244.347z"/>
<path class="st1" d="M353.132,67.784c2.34,0.675,10.194-2.231,6.065,0.583c-4.198,2.861-10.177,9.531-12.517,8.856
	c-2.34-0.675,2.305-5.004,1.759-10.054C347.87,61.901,350.792,67.109,353.132,67.784z"/>
<path class="st1" d="M422.399,235.588c1.681,0.485,6.991-0.46,4.281,0.676c-2.755,1.155-6.514,4.09-8.195,3.605
	c-1.681-0.485,1.294-2.341,0.59-4.886C418.342,232.328,420.719,235.103,422.399,235.588z"/>
<path class="st1" d="M454.518,216.921c1.681,0.485,6.214,2.011,3.504,3.147c-2.755,1.155-6.514,4.09-8.195,3.605
	c-1.681-0.485,1.294-2.341,0.59-4.887C449.684,216.13,452.837,216.436,454.518,216.921z"/>
<path class="st1" d="M277.162,237.716c1.113-2.167-0.943-19.672,1.023-15.078c1.999,4.67,8.109,21.06,6.996,23.227
	c-1.113,2.167-4.466-3.225-9.527-3.662C270.375,241.747,276.049,239.883,277.162,237.716z"/>
<path class="st1" d="M430.719,160.272c0,2.436-5.35,7.598-9.198,4.41c-3.912-3.241-9.198-1.975-9.198-4.41
	c0-2.436,5.446,0.828,10.148-1.096C427.375,157.17,430.719,157.836,430.719,160.272z"/>
<path class="st1" d="M421.056,126.137c1.616-1.823-8.159-11.939-4.359-10.277c4.654,2.035,19.74,20.658,18.124,22.481
	c-1.616,1.823-3.526-4.232-8.32-5.912C421.501,130.676,419.44,127.959,421.056,126.137z"/>
<path class="st1" d="M415.456,182.136c2.34,0.675,10.194-2.231,6.065,0.583c-4.198,2.861-10.177,9.531-12.517,8.856
	c-2.34-0.675,2.304-5.004,1.759-10.054C410.194,176.253,413.116,181.461,415.456,182.136z"/>
<path class="st1" d="M467.124,199.807c1.681,0.485,6.991-0.46,4.281,0.676c-2.755,1.155-6.514,4.09-8.195,3.605
	c-1.681-0.485,1.294-2.341,0.59-4.887C463.067,196.546,465.443,199.322,467.124,199.807z"/>
<path class="st1" d="M435.082,187.456c1.681,0.485,6.214,2.011,3.504,3.147c-2.755,1.155-6.514,4.09-8.195,3.605
	c-1.681-0.485,1.294-2.341,0.59-4.887C430.248,186.666,433.401,186.972,435.082,187.456z"/>
<path class="st1" d="M393.464,208.497c1.113-2.167-0.943-19.672,1.023-15.078c1.999,4.67,8.109,21.06,6.996,23.227
	c-1.113,2.167-4.466-3.225-9.527-3.662C386.678,212.527,392.351,210.663,393.464,208.497z"/>
<path class="st1" d="M437.057,275.147c0,2.436-5.35,7.598-9.198,4.41c-3.912-3.241-9.198-1.975-9.198-4.41
	c0-2.436,5.446,0.828,10.148-1.096C433.713,272.045,437.057,272.711,437.057,275.147z"/>
<path class="st1" d="M460.389,284.829c2.317,0.75,7.67-12.259,7.67-8.111c0,5.08-11.019,26.363-13.337,25.613
	c-2.317-0.75,2.465-4.927,2.084-9.992C456.408,287.055,458.072,284.079,460.389,284.829z"/>
<path class="st1" d="M421.794,297.012c2.34,0.675,10.194-2.231,6.065,0.583c-4.198,2.861-10.177,9.531-12.517,8.856
	c-2.34-0.675,2.304-5.004,1.759-10.054C416.532,291.128,419.454,296.337,421.794,297.012z"/>
<path class="st1" d="M430.888,322.744c1.681,0.485,6.991-0.46,4.281,0.676c-2.755,1.155-6.514,4.09-8.195,3.605
	c-1.681-0.485,1.294-2.341,0.59-4.887C426.831,319.483,429.207,322.259,430.888,322.744z"/>
<path class="st1" d="M441.42,302.332c1.681,0.485,6.214,2.011,3.504,3.147c-2.755,1.155-6.514,4.09-8.195,3.605
	c-1.681-0.485,1.294-2.341,0.59-4.887C436.586,301.542,439.739,301.847,441.42,302.332z"/>
<path class="st1" d="M399.803,323.372c1.113-2.167-0.943-19.672,1.023-15.078c1.999,4.67,8.109,21.06,6.996,23.227
	c-1.113,2.167-4.466-3.225-9.527-3.662C393.016,327.403,398.69,325.539,399.803,323.372z"/>
<path class="st1" d="M368.395,93.046c0,2.436-5.35,7.598-9.198,4.41c-3.912-3.241-9.198-1.975-9.198-4.41s5.446,0.828,10.148-1.096
	C365.051,89.944,368.395,90.61,368.395,93.046z"/>
<path class="st1" d="M377.754,88.448c0.532-2.377-12.919-6.497-8.789-6.883c5.058-0.472,27.273,8.521,26.741,10.898
	c-0.532,2.377-5.134-1.997-10.142-1.146C380.34,92.205,377.222,90.825,377.754,88.448z"/>
<path class="st1" d="M353.132,114.91c2.34,0.675,10.194-2.231,6.065,0.583c-4.198,2.861-10.177,9.531-12.517,8.856
	c-2.34-0.675,2.305-5.004,1.759-10.054C347.87,109.027,350.792,114.235,353.132,114.91z"/>
<path class="st1" d="M386.036,124.13c1.681,0.485,6.991-0.46,4.281,0.676c-2.755,1.155-6.514,4.09-8.195,3.605
	c-1.681-0.485,1.294-2.341,0.59-4.886C381.979,120.869,384.355,123.645,386.036,124.13z"/>
<path class="st1" d="M396.112,149.865c1.681,0.485,6.215,2.011,3.504,3.147c-2.755,1.155-6.514,4.09-8.195,3.605
	c-1.681-0.485,1.294-2.341,0.59-4.887C391.279,149.075,394.432,149.38,396.112,149.865z"/>
<path class="st1" d="M310.678,113.887c1.113-2.167-0.943-19.672,1.023-15.078c1.999,4.67,8.109,21.06,6.997,23.227
	c-1.113,2.167-4.466-3.225-9.527-3.662C303.891,117.918,309.565,116.054,310.678,113.887z"/>
<path class="st1" d="M80.77,273.798c0,2.436-5.35,7.598-9.198,4.41c-3.912-3.241-9.198-1.975-9.198-4.41
	c0-2.436,5.446,0.828,10.148-1.096C77.426,270.696,80.77,271.362,80.77,273.798z"/>
<path class="st1" d="M85.889,373.356c2.317,0.75,7.67-12.259,7.67-8.111c0,5.08-11.019,26.363-13.337,25.613
	c-2.317-0.75,2.465-4.927,2.084-9.992C81.908,375.582,83.572,372.606,85.889,373.356z"/>
<path class="st1" d="M64.327,318.815c2.34,0.675,10.194-2.231,6.065,0.583c-4.198,2.861-10.177,9.531-12.517,8.856
	c-2.34-0.675,2.304-5.004,1.759-10.054C59.065,312.932,61.987,318.14,64.327,318.815z"/>
<path class="st1" d="M73.421,344.548c1.681,0.485,6.991-0.46,4.281,0.676c-2.755,1.155-6.514,4.09-8.195,3.605
	c-1.681-0.485,1.294-2.341,0.59-4.887C69.364,341.287,71.74,344.063,73.421,344.548z"/>
<path class="st1" d="M115.599,322.436c1.681,0.485,6.214,2.011,3.504,3.147c-2.755,1.155-6.514,4.09-8.195,3.605
	c-1.681-0.485,1.294-2.341,0.59-4.887C110.765,321.646,113.919,321.951,115.599,322.436z"/>
<path class="st1" d="M42.336,345.176c1.113-2.167-0.943-19.672,1.023-15.078c1.999,4.67,8.109,21.06,6.996,23.227
	c-1.113,2.167-4.466-3.225-9.527-3.662C35.549,349.206,41.223,347.342,42.336,345.176z"/>
<path class="st1" d="M129.477,370.735c0,2.436-5.35,7.598-9.198,4.41c-3.912-3.241-9.198-1.975-9.198-4.41
	c0-2.436,5.446,0.828,10.148-1.096C126.133,367.633,129.477,368.299,129.477,370.735z"/>
<path class="st1" d="M173.194,404.692c2.317,0.75,7.67-12.259,7.67-8.111c0,5.08-11.019,26.363-13.337,25.613
	c-2.317-0.75,2.465-4.927,2.084-9.992C169.213,406.917,170.877,403.941,173.194,404.692z"/>
<path class="st1" d="M150.453,438.1c2.34,0.675,10.194-2.231,6.065,0.583c-4.198,2.861-10.177,9.531-12.517,8.856
	c-2.34-0.675,2.304-5.004,1.759-10.054C145.191,432.216,148.112,437.425,150.453,438.1z"/>
<path class="st1" d="M123.307,418.332c1.681,0.485,6.991-0.46,4.281,0.676c-2.755,1.155-6.514,4.09-8.195,3.605
	s1.294-2.341,0.59-4.887C119.25,415.071,121.627,417.847,123.307,418.332z"/>
<path class="st1" d="M133.84,397.92c1.681,0.485,6.214,2.011,3.504,3.147c-2.755,1.155-6.514,4.09-8.195,3.605
	c-1.681-0.485,1.294-2.341,0.59-4.886C129.006,397.13,132.159,397.435,133.84,397.92z"/>
<path class="st1" d="M92.222,418.96c1.113-2.167-0.943-19.672,1.023-15.078c1.999,4.67,8.109,21.06,6.996,23.227
	c-1.113,2.167-4.466-3.225-9.527-3.662C85.435,422.991,91.109,421.127,92.222,418.96z"/>
<path class="st1" d="M221.092,421.479c0,2.436-5.35,7.598-9.198,4.41c-3.912-3.241-9.198-1.975-9.198-4.41s5.446,0.828,10.148-1.096
	C217.749,418.377,221.092,419.043,221.092,421.479z"/>
<path class="st1" d="M244.425,431.161c2.317,0.75,7.67-12.259,7.67-8.111c0,5.08-11.019,26.363-13.337,25.613
	c-2.317-0.75,2.465-4.927,2.084-9.992C240.444,433.387,242.107,430.411,244.425,431.161z"/>
<path class="st1" d="M205.83,443.344c2.34,0.675,10.194-2.231,6.065,0.583c-4.198,2.861-10.177,9.531-12.517,8.856
	c-2.34-0.675,2.304-5.004,1.759-10.054C200.568,437.46,203.489,442.669,205.83,443.344z"/>
<path class="st1" d="M214.923,469.076c1.681,0.485,6.991-0.46,4.281,0.676c-2.755,1.155-6.514,4.09-8.195,3.605
	c-1.681-0.485,1.294-2.341,0.59-4.887C210.866,465.815,213.242,468.591,214.923,469.076z"/>
<path class="st1" d="M255.48,467.133c1.681,0.485,6.214,2.011,3.504,3.147c-2.755,1.155-6.514,4.09-8.195,3.605
	c-1.681-0.485,1.294-2.341,0.59-4.887C250.646,466.343,253.799,466.649,255.48,467.133z"/>
<path class="st1" d="M183.838,469.704c1.113-2.167-0.943-19.672,1.023-15.078c1.999,4.67,8.109,21.06,6.996,23.227
	c-1.113,2.167-4.466-3.225-9.527-3.662C177.051,473.735,182.725,471.871,183.838,469.704z"/>
<path class="st1" d="M417.31,347.928c0,2.436-5.35,7.598-9.198,4.41c-3.912-3.241-9.198-1.975-9.198-4.41
	c0-2.436,5.446,0.828,10.148-1.096C413.966,344.826,417.31,345.492,417.31,347.928z"/>
<path class="st1" d="M440.642,357.61c2.317,0.75,7.67-12.259,7.67-8.111c0,5.08-11.019,26.363-13.337,25.613
	c-2.317-0.75,2.465-4.927,2.084-9.992C436.661,359.836,438.325,356.86,440.642,357.61z"/>
<path class="st1" d="M402.047,369.792c2.34,0.675,10.194-2.231,6.065,0.583c-4.198,2.861-10.177,9.531-12.517,8.856
	c-2.34-0.675,2.305-5.004,1.759-10.054C396.785,363.909,399.707,369.117,402.047,369.792z"/>
<path class="st1" d="M411.141,395.525c1.681,0.485,6.991-0.46,4.281,0.676c-2.755,1.155-6.514,4.09-8.195,3.605
	s1.294-2.341,0.59-4.887C407.084,392.264,409.46,395.04,411.141,395.525z"/>
<path class="st1" d="M421.673,375.113c1.681,0.485,6.214,2.011,3.504,3.147c-2.755,1.155-6.514,4.09-8.195,3.605
	c-1.681-0.485,1.294-2.341,0.59-4.887C416.839,374.322,419.992,374.628,421.673,375.113z"/>
<path class="st1" d="M380.055,396.153c1.113-2.167-0.943-19.672,1.023-15.078c1.999,4.67,8.109,21.06,6.997,23.227
	c-1.113,2.167-4.466-3.225-9.527-3.662C373.269,400.183,378.943,398.319,380.055,396.153z"/>
<path class="st1" d="M378.224,170.103c0,2.436-5.35,7.598-9.198,4.41c-3.912-3.241-9.198-1.975-9.198-4.41
	c0-2.436,5.446,0.828,10.148-1.096C374.88,167.001,378.224,167.667,378.224,170.103z"/>
<path class="st1" d="M366.579,360.131c2.317,0.75,7.67-12.259,7.67-8.111c0,5.08-11.019,26.363-13.337,25.613
	c-2.317-0.75,2.465-4.927,2.084-9.992C362.598,362.357,364.262,359.381,366.579,360.131z"/>
<path class="st1" d="M304.972,344.849c2.34,0.675,10.194-2.231,6.065,0.583c-4.198,2.861-10.177,9.531-12.517,8.856
	c-2.34-0.675,2.304-5.004,1.759-10.054C299.71,338.965,302.632,344.174,304.972,344.849z"/>
<path class="st1" d="M314.066,370.581c1.681,0.485,6.991-0.46,4.281,0.676c-2.755,1.155-6.514,4.09-8.195,3.605
	c-1.681-0.485,1.294-2.341,0.59-4.887C310.008,367.321,312.385,370.096,314.066,370.581z"/>
<path class="st1" d="M402.543,271.754c1.681,0.485,6.214,2.011,3.504,3.147c-2.755,1.155-6.514,4.09-8.195,3.605
	c-1.681-0.485,1.294-2.341,0.59-4.887C397.709,270.964,400.863,271.27,402.543,271.754z"/>
<path class="st1" d="M282.98,371.209c1.113-2.167-0.943-19.672,1.023-15.078c1.999,4.67,8.109,21.06,6.996,23.227
	c-1.113,2.167-4.466-3.225-9.527-3.662C276.194,375.24,281.867,373.376,282.98,371.209z"/>
<path class="st1" d="M327.877,402.041c0,2.436-5.35,7.598-9.198,4.41c-3.912-3.241-9.198-1.975-9.198-4.41
	c0-2.436,5.446,0.828,10.148-1.096C324.533,398.939,327.877,399.605,327.877,402.041z"/>
<path class="st1" d="M365.148,436.1c2.317,0.75,7.67-12.259,7.67-8.111c0,5.08-11.019,26.363-13.337,25.613
	c-2.317-0.75,2.465-4.927,2.084-9.992C361.167,438.326,362.83,435.35,365.148,436.1z"/>
<path class="st1" d="M312.614,423.905c2.34,0.675,10.194-2.231,6.065,0.583c-4.198,2.861-10.177,9.531-12.517,8.856
	c-2.34-0.675,2.304-5.004,1.759-10.054C307.352,418.022,310.273,423.23,312.614,423.905z"/>
<path class="st1" d="M321.708,449.637c1.681,0.485,6.991-0.46,4.281,0.676c-2.755,1.155-6.514,4.09-8.195,3.605
	s1.294-2.341,0.59-4.887C317.65,446.377,320.027,449.153,321.708,449.637z"/>
<path class="st1" d="M332.24,429.225c1.681,0.485,6.214,2.011,3.504,3.147c-2.755,1.155-6.514,4.09-8.195,3.605
	c-1.681-0.485,1.294-2.341,0.59-4.887C327.406,428.435,330.559,428.741,332.24,429.225z"/>
<path class="st1" d="M289.308,457.212c1.113-2.167-0.943-19.672,1.023-15.078c1.999,4.67,8.109,21.06,6.996,23.227
	c-1.113,2.167-4.466-3.225-9.527-3.662C282.521,461.243,288.195,459.379,289.308,457.212z"/>
<path class="st1" d="M221.866,256.452c0,2.436-5.35,7.598-9.198,4.41c-3.912-3.241-9.198-1.975-9.198-4.41
	c0-2.436,5.446,0.828,10.148-1.096C218.523,253.35,221.866,254.016,221.866,256.452z"/>
<path class="st1" d="M245.199,266.134c2.317,0.75,7.67-12.259,7.67-8.111c0,5.08-11.019,26.363-13.337,25.613
	c-2.317-0.75,2.465-4.927,2.084-9.992C241.218,268.36,242.882,265.384,245.199,266.134z"/>
<path class="st1" d="M206.604,278.316c2.34,0.675,10.194-2.231,6.065,0.583c-4.198,2.861-10.177,9.531-12.517,8.856
	c-2.34-0.675,2.304-5.004,1.759-10.054C201.342,272.433,204.263,277.642,206.604,278.316z"/>
<path class="st1" d="M215.697,304.049c1.681,0.485,6.991-0.46,4.281,0.676c-2.755,1.155-6.514,4.09-8.195,3.605
	c-1.681-0.485,1.294-2.341,0.59-4.887C211.64,300.788,214.017,303.564,215.697,304.049z"/>
<path class="st1" d="M226.229,283.637c1.681,0.485,6.214,2.011,3.504,3.147c-2.755,1.155-6.514,4.09-8.195,3.605
	c-1.681-0.485,1.294-2.341,0.59-4.887C221.395,282.847,224.549,283.152,226.229,283.637z"/>
<path class="st1" d="M184.612,304.677c1.113-2.167-0.943-19.672,1.023-15.078c1.999,4.67,8.109,21.06,6.997,23.227
	c-1.113,2.167-4.466-3.225-9.527-3.662C177.825,308.708,183.499,306.844,184.612,304.677z"/>
<path class="st1" d="M153.502,163.602c0,2.436-5.35,7.598-9.198,4.41c-3.912-3.241-9.198-1.975-9.198-4.41s5.446,0.828,10.148-1.096
	C150.159,160.501,153.502,161.167,153.502,163.602z"/>
<path class="st1" d="M196.006,225.538c2.317,0.75,7.67-12.259,7.67-8.111c0,5.08-11.019,26.363-13.337,25.613
	c-2.317-0.75,2.465-4.927,2.084-9.992C192.025,227.763,193.689,224.787,196.006,225.538z"/>
<path class="st1" d="M124.824,255.481c2.34,0.675,10.194-2.231,6.065,0.583c-4.198,2.861-10.177,9.531-12.517,8.856
	c-2.34-0.675,2.304-5.004,1.759-10.054C119.562,249.598,122.483,254.806,124.824,255.481z"/>
<path class="st1" d="M38.313,297.973c1.681,0.485,6.991-0.46,4.281,0.676c-2.755,1.155-6.514,4.09-8.195,3.605
	c-1.681-0.485,1.294-2.341,0.59-4.887C34.256,294.713,36.632,297.488,38.313,297.973z"/>
<path class="st1" d="M75.964,248.638c1.681,0.485,6.214,2.011,3.504,3.147c-2.755,1.155-6.514,4.09-8.195,3.605
	c-1.681-0.485,1.294-2.341,0.59-4.887C71.13,247.848,74.283,248.153,75.964,248.638z"/>
<path class="st1" d="M120.348,305.599c1.113-2.167-0.943-19.672,1.023-15.078c1.999,4.67,8.109,21.06,6.997,23.227
	c-1.113,2.167-4.466-3.225-9.527-3.662C113.561,309.63,119.235,307.766,120.348,305.599z"/>
<circle class="st3" cx="250.167" cy="250.404" r="175.564"/>
<path class="st4" d="M432.07,221.778c0,46.911-51.141,76.144-64.103,124.685c-14.893,55.773-62.782,80.146-110.47,80.146
	c-49.389,0-62.739-41.735-101.264-66.461c-31.781-20.397-54.32-42.993-64.496-71.255c-5.691-15.804-21.327,4.001-24.029-8.404
	c-3.024-13.884,19.837-3.694,19.142-13.291c-0.28-3.868-0.639-7.811-0.639-11.876c0-33.585,12.649-72.802,32.14-106.617
	c8.298-14.397,11.278-31.182,9.101-47.656c-0.681-5.156-0.574-9.963,1.204-12.977c6.246-10.585,14.344-11.224,21.396-8.688
	c11.885,4.275,25.123,3.334,36.354-2.443c23.932-12.31,48.946-12.446,71.092,7.096C335.592,152.947,432.07,127.179,432.07,221.778z"
	/>
<g>
	<path class="st5" d="M382.765,233.354c-1.566,12.127-41.717,34.576-42.344,22.911c-2.212-41.128-2.789-88.258-0.004-115.931
		c1.231-12.237,41.204-30.901,42.386-24.502C387.295,140.156,387.744,194.795,382.765,233.354z"/>
	
		<ellipse transform="matrix(0.8174 -0.576 0.576 0.8174 -8.0693 231.8062)" class="st5" cx="361.644" cy="128.633" rx="25.074" ry="9.584"/>
	<g>
		<path class="st4" d="M376.272,128.633c-2.43,2.271-4.982,4.416-7.689,6.363c-2.696,1.962-5.536,3.746-8.549,5.246
			c-3.021,1.433-6.243,2.762-9.792,2.737c-0.88-0.033-1.78-0.179-2.626-0.532c-0.847-0.349-1.592-0.975-2.098-1.729
			c-0.526-0.767-0.688-1.704-0.663-2.559c0.025-0.866,0.241-1.694,0.559-2.464c-0.129,0.823-0.197,1.65-0.097,2.442
			c0.099,0.793,0.4,1.525,0.874,2.091c0.954,1.186,2.518,1.585,4.058,1.521c1.553-0.045,3.124-0.445,4.643-0.968
			c1.53-0.509,3.018-1.171,4.486-1.882c2.936-1.429,5.764-3.115,8.563-4.857C370.729,132.284,373.49,130.458,376.272,128.633z"/>
	</g>
	<g>
		<path class="st6" d="M356.392,125.091c1.172-1.747,2.693-3.263,4.359-4.566c1.667-1.308,3.489-2.414,5.408-3.327
			c1.93-0.882,3.958-1.609,6.1-1.889c1.066-0.14,2.167-0.158,3.242,0.056c1.053,0.245,2.135,0.793,2.632,1.752
			c-0.736-0.77-1.727-1.09-2.72-1.127c-0.996-0.051-1.997,0.095-2.981,0.309c-1.967,0.456-3.88,1.196-5.726,2.064
			c-1.856,0.856-3.64,1.874-5.372,2.977C359.619,122.471,357.94,123.674,356.392,125.091z"/>
	</g>
	
		<ellipse transform="matrix(0.8174 -0.576 0.576 0.8174 -74.5571 252.8797)" class="st5" cx="361.644" cy="244.055" rx="25.074" ry="9.584"/>
	<ellipse class="st7" cx="348.426" cy="211.559" rx="3.349" ry="39.064"/>
	<path class="st8" d="M379.706,177.074c0,18.493-1.697,34.485-2.289,34.485c-0.593,0,0.143-15.993,0.143-34.485
		s-1.451-33.484-0.859-33.484C377.294,143.59,379.706,158.581,379.706,177.074z"/>
	<path class="st9" d="M377.684,226.574c0,5.645-1.536,10.527-2.073,10.527c-0.537,0,0.13-4.882,0.13-10.527
		c0-5.645,0.131-10.222,0.667-10.222C376.945,216.352,377.684,220.929,377.684,226.574z"/>
	<path class="st7" d="M358.428,185.17c0,15.845-2.909,29.466-4.411,29.466c-1.502,0-1.027-13.621-1.027-29.466
		c0-15.845-2.192-28.272-0.69-28.272C353.802,156.898,358.428,169.324,358.428,185.17z"/>
</g>
<g>
	<path class="st5" d="M303.71,203.565c-1.566,12.127-41.717,34.576-42.344,22.911c-2.212-41.128-2.789-88.257-0.004-115.931
		c1.231-12.237,41.204-30.901,42.386-24.502C308.24,110.367,308.688,165.006,303.71,203.565z"/>
	
		<ellipse transform="matrix(0.8174 -0.576 0.576 0.8174 -5.3435 180.8282)" class="st5" cx="282.589" cy="98.844" rx="25.074" ry="9.584"/>
	<g>
		<path class="st4" d="M297.216,98.844c-2.43,2.271-4.982,4.416-7.689,6.363c-2.696,1.962-5.536,3.746-8.549,5.246
			c-3.021,1.433-6.243,2.761-9.792,2.737c-0.88-0.033-1.78-0.179-2.626-0.532c-0.847-0.349-1.592-0.975-2.098-1.729
			c-0.526-0.767-0.688-1.704-0.663-2.559c0.025-0.866,0.241-1.694,0.559-2.464c-0.129,0.823-0.197,1.65-0.097,2.442
			c0.099,0.793,0.4,1.525,0.874,2.091c0.954,1.186,2.518,1.585,4.058,1.521c1.553-0.045,3.124-0.445,4.643-0.968
			c1.53-0.509,3.018-1.171,4.486-1.882c2.936-1.429,5.764-3.115,8.563-4.857C291.674,102.495,294.435,100.669,297.216,98.844z"/>
	</g>
	<g>
		<path class="st6" d="M277.337,95.302c1.172-1.747,2.693-3.263,4.359-4.566c1.667-1.308,3.489-2.414,5.408-3.327
			c1.93-0.882,3.958-1.609,6.1-1.889c1.066-0.14,2.167-0.158,3.242,0.056c1.053,0.245,2.135,0.793,2.632,1.752
			c-0.736-0.77-1.727-1.09-2.72-1.127c-0.996-0.051-1.997,0.095-2.981,0.309c-1.967,0.456-3.88,1.196-5.726,2.064
			c-1.856,0.856-3.64,1.874-5.372,2.977C280.563,92.682,278.885,93.885,277.337,95.302z"/>
	</g>
	
		<ellipse transform="matrix(0.8174 -0.576 0.576 0.8174 -71.8312 201.9017)" class="st5" cx="282.589" cy="214.266" rx="25.074" ry="9.584"/>
	<ellipse class="st7" cx="269.37" cy="181.77" rx="3.349" ry="39.064"/>
	<path class="st8" d="M300.65,147.285c0,18.493-1.697,34.485-2.289,34.485c-0.593,0,0.143-15.993,0.143-34.485
		s-1.451-33.484-0.859-33.484C298.238,113.801,300.65,128.792,300.65,147.285z"/>
	<path class="st9" d="M298.629,196.785c0,5.645-1.536,10.527-2.073,10.527c-0.537,0,0.13-4.882,0.13-10.527
		c0-5.645,0.131-10.222,0.667-10.222C297.889,186.563,298.629,191.14,298.629,196.785z"/>
	<path class="st7" d="M279.373,155.381c0,15.845-2.909,29.466-4.411,29.466c-1.502,0-1.027-13.621-1.027-29.466
		s-2.192-28.272-0.69-28.272C274.746,127.109,279.373,139.535,279.373,155.381z"/>
</g>
<g>
	<path class="st5" d="M189.859,112.002c-7.372-9.756,5.583-53.895,14.197-46.005c30.373,27.82,63.778,61.07,81.163,82.78
		c7.688,9.6-7.79,50.911-13.113,47.169C251.87,181.723,213.298,143.021,189.859,112.002z"/>
	
		<ellipse transform="matrix(0.1804 -0.9836 0.9836 0.1804 58.8785 414.6486)" class="st5" cx="278.253" cy="171.994" rx="25.074" ry="9.584"/>
	<g>
		<path class="st4" d="M267.808,182.234c0.146-3.323,0.466-6.641,1.036-9.927c0.552-3.288,1.331-6.55,2.432-9.731
			c1.154-3.138,2.525-6.343,5.076-8.809c0.652-0.592,1.396-1.118,2.248-1.458c0.85-0.344,1.82-0.418,2.708-0.235
			c0.913,0.179,1.684,0.735,2.265,1.363c0.589,0.636,1.013,1.378,1.326,2.151c-0.484-0.677-1.015-1.316-1.64-1.812
			c-0.625-0.497-1.353-0.81-2.088-0.881c-1.511-0.179-2.907,0.631-3.962,1.755c-1.077,1.12-1.919,2.505-2.637,3.942
			c-0.736,1.434-1.336,2.949-1.885,4.484c-1.096,3.076-1.935,6.259-2.714,9.462C269.21,175.746,268.517,178.983,267.808,182.234z"/>
	</g>
	<g>
		<path class="st6" d="M284.483,170.846c0.386,2.068,0.362,4.216,0.084,6.311c-0.275,2.101-0.802,4.166-1.532,6.162
			c-0.76,1.981-1.7,3.92-3.033,5.619c-0.663,0.847-1.436,1.63-2.354,2.23c-0.924,0.563-2.08,0.929-3.106,0.592
			c1.064,0.035,1.996-0.431,2.732-1.1c0.747-0.66,1.36-1.466,1.912-2.307c1.085-1.703,1.933-3.57,2.644-5.483
			c0.726-1.911,1.287-3.886,1.752-5.887C284.013,174.975,284.37,172.941,284.483,170.846z"/>
	</g>
	
		<ellipse transform="matrix(0.1804 -0.9836 0.9836 0.1804 73.72 267.6211)" class="st5" cx="197.449" cy="89.574" rx="25.074" ry="9.584"/>
	<path class="st7" d="M227.246,105.869c-15.104-15.406-26.277-28.944-24.957-30.239c1.321-1.295,14.635,10.145,29.739,25.55
		c15.104,15.406,26.278,28.944,24.957,30.239C255.665,132.714,242.35,121.274,227.246,105.869z"/>
	<path class="st8" d="M231.444,150.048c-12.946-13.205-22.931-25.813-22.508-26.228c0.423-0.415,11.094,11.52,24.04,24.725
		c12.946,13.205,24.477,22.894,24.054,23.309C256.607,172.269,244.39,163.253,231.444,150.048z"/>
	<path class="st9" d="M198.234,113.286c-3.952-4.031-6.273-8.593-5.89-8.968c0.383-0.376,3.325,3.577,7.277,7.608
		c3.952,4.031,7.062,7.391,6.679,7.766C205.917,120.067,202.186,117.317,198.234,113.286z"/>
	<path class="st7" d="M240.97,129.371c-11.093-11.314-18.551-23.078-17.479-24.129c1.072-1.051,10.269,9.008,21.362,20.322
		c11.093,11.314,21.357,18.653,20.285,19.705C264.066,146.32,252.063,140.685,240.97,129.371z"/>
</g>
<g>
	<path class="st5" d="M322.471,316.491c8.036,9.217-1.802,54.153-10.947,46.884c-32.243-25.629-67.891-56.463-86.75-76.905
		c-8.34-9.04,4.212-51.331,9.785-47.97C255.739,251.275,296.922,287.187,322.471,316.491z"/>
	
		<ellipse transform="matrix(0.1112 -0.9938 0.9938 0.1112 -56.6894 462.259)" class="st5" cx="230.1" cy="262.824" rx="25.074" ry="9.584"/>
	<g>
		<path class="st4" d="M239.804,251.879c0.087,3.325-0.001,6.658-0.34,9.975c-0.321,3.319-0.87,6.627-1.746,9.877
			c-0.932,3.211-2.076,6.504-4.448,9.142c-0.609,0.636-1.315,1.213-2.14,1.612c-0.823,0.402-1.786,0.544-2.685,0.423
			c-0.923-0.115-1.732-0.615-2.355-1.201c-0.632-0.594-1.107-1.304-1.473-2.053c0.53,0.642,1.104,1.242,1.763,1.693
			c0.658,0.452,1.406,0.713,2.144,0.733c1.52,0.073,2.856-0.832,3.83-2.027c0.996-1.192,1.74-2.633,2.355-4.116
			c0.634-1.482,1.126-3.035,1.567-4.605c0.879-3.145,1.493-6.379,2.046-9.629C238.859,258.449,239.324,255.171,239.804,251.879z"/>
	</g>
	<g>
		<path class="st6" d="M223.966,264.405c-0.529-2.036-0.655-4.18-0.525-6.29c0.127-2.115,0.509-4.212,1.098-6.254
			c0.62-2.029,1.422-4.029,2.633-5.817c0.602-0.891,1.319-1.726,2.192-2.389c0.882-0.626,2.01-1.072,3.057-0.807
			c-1.064,0.04-1.961,0.569-2.648,1.288c-0.699,0.711-1.254,1.557-1.746,2.435c-0.964,1.774-1.679,3.697-2.254,5.654
			c-0.591,1.957-1.012,3.967-1.337,5.995C224.146,260.252,223.932,262.306,223.966,264.405z"/>
	</g>
	
		<ellipse transform="matrix(0.1112 -0.9938 0.9938 0.1112 -56.0256 616.1425)" class="st5" cx="316.467" cy="339.395" rx="25.074" ry="9.584"/>
	<path class="st7" d="M285.604,325.222c16.144,14.313,28.236,27.037,27.009,28.421c-1.227,1.384-15.308-9.097-31.452-23.409
		c-16.144-14.313-28.236-27.037-27.009-28.421C255.379,300.429,269.46,310.91,285.604,325.222z"/>
	<path class="st8" d="M278.329,281.445c13.837,12.268,24.679,24.147,24.286,24.591c-0.393,0.444-11.872-10.717-25.71-22.985
		c-13.837-12.268-26.018-21.127-25.624-21.571C251.674,261.037,264.492,269.177,278.329,281.445z"/>
	<path class="st9" d="M314.027,315.796c4.224,3.745,6.858,8.133,6.502,8.535c-0.356,0.402-3.567-3.336-7.791-7.081
		s-7.562-6.879-7.206-7.28C305.888,309.568,309.803,312.051,314.027,315.796z"/>
	<path class="st7" d="M270.271,302.737c11.856,10.512,20.119,21.725,19.123,22.848c-0.996,1.124-10.874-8.268-22.73-18.779
		c-11.856-10.512-22.609-17.115-21.613-18.239C246.047,287.443,258.415,292.225,270.271,302.737z"/>
	<path class="st10" d="M322.952,316.909c-0.157-0.195-0.318-0.38-0.483-0.548c-25.584-29.197-66.356-64.716-87.397-77.406
		c-0.018-0.011-0.038-0.016-0.056-0.026c-0.511-0.307-1.048-0.505-1.613-0.568c-5.26-0.589-10.773,10.09-12.314,23.852
		c-1.268,11.327,0.552,21.205,4.168,24.677c0.01,0.011,0.02,0.025,0.03,0.036c18.86,20.442,54.508,51.275,86.75,76.905
		c0.039,0.031,0.078,0.054,0.117,0.083c0.095,0.071,0.19,0.14,0.287,0.202c0.018,0.011,0.036,0.022,0.054,0.033
		c0.535,0.337,1.1,0.552,1.695,0.619c5.26,0.589,10.773-10.09,12.313-23.852c1.028-9.185,0.025-17.417-2.319-22.054
		c-0.345-0.742-0.743-1.389-1.201-1.915C322.974,316.933,322.963,316.921,322.952,316.909z"/>
</g>
<g>
	<path class="st5" d="M224.465,222.463c11.47-4.239,49.983,20.916,39.941,26.883c-35.409,21.039-76.892,43.414-102.699,53.785
		c-11.412,4.586-46.489-22.167-41.369-26.183C139.8,261.685,187.997,235.94,224.465,222.463z"/>
	
		<ellipse transform="matrix(0.4569 -0.8895 0.8895 0.4569 -180.8972 283.2184)" class="st5" cx="141.492" cy="289.754" rx="9.584" ry="25.074"/>
	<g>
		<path class="st4" d="M134.706,276.796c3.139,1.099,6.223,2.365,9.204,3.86c2.989,1.479,5.886,3.167,8.614,5.139
			c2.671,2.012,5.343,4.25,6.967,7.405c0.379,0.795,0.667,1.66,0.747,2.573c0.083,0.913-0.126,1.863-0.558,2.661
			c-0.435,0.822-1.19,1.4-1.959,1.775c-0.779,0.38-1.612,0.572-2.442,0.648c0.788-0.268,1.553-0.591,2.209-1.047
			c0.656-0.455,1.166-1.062,1.447-1.744c0.608-1.395,0.236-2.966-0.535-4.3c-0.761-1.355-1.843-2.561-3.012-3.663
			c-1.16-1.119-2.437-2.131-3.749-3.1c-2.628-1.938-5.433-3.661-8.275-5.333C140.512,280.012,137.613,278.413,134.706,276.796z"/>
	</g>
	<g>
		<path class="st6" d="M140.791,296.049c-2.091-0.228-4.14-0.872-6.067-1.743c-1.932-0.87-3.757-1.971-5.456-3.247
			c-1.677-1.3-3.262-2.76-4.503-4.527c-0.619-0.879-1.145-1.846-1.454-2.898c-0.272-1.047-0.288-2.26,0.331-3.145
			c-0.341,1.009-0.164,2.036,0.263,2.933c0.417,0.906,1.01,1.725,1.656,2.497c1.316,1.531,2.859,2.883,4.485,4.115
			c1.619,1.247,3.349,2.355,5.129,3.378C136.973,294.407,138.817,295.336,140.791,296.049z"/>
	</g>
	
		<ellipse transform="matrix(0.4569 -0.8895 0.8895 0.4569 -77.7377 345.0924)" class="st5" cx="243.743" cy="236.209" rx="9.584" ry="25.074"/>
	<path class="st7" d="M219.534,260.027c19.113-10.009,35.302-16.794,36.16-15.156c0.858,1.638-13.94,11.08-33.053,21.089
		c-19.113,10.009-35.302,16.794-36.16,15.156C185.623,279.478,200.421,270.036,219.534,260.027z"/>
	<path class="st8" d="M176.026,251.281c16.382-8.579,31.337-14.495,31.612-13.97c0.275,0.525-14.234,7.292-30.617,15.871
		c-16.382,8.579-28.99,16.819-29.265,16.294C147.482,268.952,159.644,259.86,176.026,251.281z"/>
	<path class="st9" d="M220.815,230.109c5.001-2.619,10.039-3.523,10.288-3.047c0.249,0.475-4.385,2.15-9.386,4.769
		c-5.001,2.619-9.116,4.626-9.365,4.151C212.103,235.506,215.814,232.728,220.815,230.109z"/>
	<path class="st7" d="M193.069,266.375c14.037-7.351,27.453-11.092,28.15-9.762c0.697,1.33-11.591,7.229-25.628,14.579
		c-14.037,7.351-24.029,15.057-24.725,13.727C170.17,283.589,179.032,273.726,193.069,266.375z"/>
	<path class="st10" d="M225.026,222.161c-0.238,0.078-0.468,0.162-0.683,0.257c-36.379,13.548-84.063,39.048-103.398,54.211
		c-0.017,0.013-0.028,0.029-0.044,0.043c-0.468,0.368-0.844,0.8-1.104,1.306c-2.419,4.708,5.607,13.654,17.924,19.982
		c10.138,5.208,20.019,7.014,24.549,4.867c0.014-0.006,0.03-0.01,0.044-0.015c25.807-10.371,67.291-32.745,102.699-53.785
		c0.043-0.026,0.078-0.054,0.119-0.08c0.1-0.063,0.198-0.128,0.291-0.196c0.017-0.013,0.034-0.026,0.05-0.039
		c0.505-0.38,0.907-0.832,1.18-1.365c2.418-4.708-5.606-13.654-17.924-19.981c-8.221-4.223-16.272-6.208-21.44-5.665
		c-0.816,0.059-1.563,0.201-2.217,0.443C225.057,222.15,225.041,222.156,225.026,222.161z"/>
</g>
<g>
	<path class="st5" d="M384.529,364.53c-1.566,12.127-41.717,34.576-42.344,22.911c-2.212-41.129-2.789-88.258-0.004-115.931
		c1.231-12.237,41.204-30.901,42.386-24.502C389.059,271.332,389.507,325.972,384.529,364.53z"/>
	
		<ellipse transform="matrix(0.8174 -0.576 0.576 0.8174 -83.3099 256.7714)" class="st5" cx="363.408" cy="259.809" rx="25.074" ry="9.584"/>
	<g>
		<path class="st4" d="M378.035,259.809c-2.43,2.271-4.982,4.416-7.689,6.363c-2.696,1.962-5.536,3.746-8.549,5.246
			c-3.021,1.433-6.243,2.762-9.792,2.737c-0.88-0.033-1.78-0.179-2.626-0.532c-0.847-0.349-1.592-0.975-2.098-1.729
			c-0.526-0.767-0.688-1.704-0.663-2.559c0.025-0.866,0.241-1.694,0.559-2.464c-0.129,0.823-0.197,1.65-0.097,2.442
			c0.099,0.793,0.4,1.525,0.874,2.091c0.954,1.186,2.518,1.585,4.058,1.521c1.553-0.045,3.124-0.445,4.643-0.968
			c1.53-0.509,3.018-1.171,4.486-1.882c2.936-1.429,5.764-3.115,8.563-4.857C372.492,263.461,375.254,261.634,378.035,259.809z"/>
	</g>
	<g>
		<path class="st6" d="M358.156,256.268c1.172-1.747,2.693-3.263,4.359-4.566c1.667-1.308,3.489-2.414,5.408-3.327
			c1.93-0.882,3.958-1.609,6.1-1.889c1.066-0.14,2.167-0.158,3.242,0.056c1.053,0.245,2.135,0.793,2.632,1.752
			c-0.736-0.77-1.727-1.09-2.72-1.127c-0.996-0.051-1.997,0.095-2.981,0.309c-1.967,0.456-3.88,1.196-5.726,2.064
			c-1.856,0.856-3.64,1.874-5.372,2.977C361.382,253.648,359.704,254.85,358.156,256.268z"/>
	</g>
	
		<ellipse transform="matrix(0.8174 -0.576 0.576 0.8174 -149.7976 277.8449)" class="st5" cx="363.408" cy="375.231" rx="25.074" ry="9.584"/>
	<ellipse class="st7" cx="350.189" cy="342.736" rx="3.349" ry="39.064"/>
	<path class="st8" d="M357.047,312.704c0,15.666-1.616,29.214-3.051,29.214c-1.435,0-2.145-13.548-2.145-29.214
		c0-15.666-0.048-28.365,1.387-28.365C354.672,284.339,357.047,297.038,357.047,312.704z"/>
	<path class="st9" d="M379.448,357.75c0,5.645-1.536,10.527-2.073,10.527s0.13-4.882,0.13-10.527c0-5.645,0.131-10.222,0.667-10.222
		C378.708,347.529,379.448,352.105,379.448,357.75z"/>
	<path class="st9" d="M379.448,340.77c0,2.33-0.951,4.345-1.283,4.345c-0.332,0,0.08-2.015,0.08-4.345
		c0-2.33,0.081-4.219,0.413-4.219S379.448,338.44,379.448,340.77z"/>
</g>
<g>
	<path class="st5" d="M292.344,288.601c-1.429,11.065-38.063,31.548-38.636,20.905c-2.018-37.526-2.545-80.528-0.004-105.777
		c1.123-11.166,37.595-28.194,38.674-22.356C296.477,203.566,296.887,253.42,292.344,288.601z"/>
	
		<ellipse transform="matrix(0.8174 -0.576 0.576 0.8174 -61.3484 192.5476)" class="st5" cx="273.073" cy="193.052" rx="22.878" ry="8.744"/>
	<g>
		<path class="st4" d="M286.419,193.052c-2.202,2.091-4.521,4.063-6.988,5.848c-2.456,1.799-5.047,3.432-7.8,4.804
			c-2.761,1.309-5.707,2.522-8.963,2.492c-0.808-0.033-1.634-0.169-2.413-0.496c-0.779-0.324-1.464-0.904-1.927-1.599
			c-0.483-0.708-0.624-1.572-0.596-2.355c0.028-0.794,0.232-1.548,0.53-2.249c-0.109,0.753-0.165,1.508-0.069,2.228
			c0.095,0.72,0.376,1.38,0.807,1.887c0.868,1.064,2.276,1.418,3.673,1.355c1.408-0.046,2.835-0.411,4.216-0.89
			c1.392-0.464,2.747-1.068,4.083-1.716c2.676-1.301,5.255-2.835,7.813-4.414C281.337,196.35,283.866,194.698,286.419,193.052z"/>
	</g>
	<g>
		<path class="st6" d="M278.199,182.807c1.438-1.116,3.144-1.823,4.966-2.105c0.911-0.118,1.866-0.139,2.797,0.116
			c0.92,0.216,1.836,0.857,2.156,1.728c-0.731-0.562-1.504-0.777-2.319-0.825c-0.81-0.045-1.638,0.017-2.468,0.144
			C281.656,182.086,279.999,182.543,278.199,182.807z"/>
	</g>
	
		<ellipse transform="matrix(0.8174 -0.576 0.576 0.8174 -122.0132 211.7755)" class="st5" cx="273.073" cy="298.366" rx="22.878" ry="8.744"/>
	<ellipse class="st8" cx="259.484" cy="289.9" rx="1.528" ry="14.458"/>
	<path class="st7" d="M267.269,241.314c0,14.294-1.474,26.655-2.784,26.655s-1.958-12.361-1.958-26.655
		c0-14.294-0.044-25.881,1.265-25.881S267.269,227.021,267.269,241.314z"/>
	<path class="st9" d="M287.708,282.415c0,5.151-1.402,9.605-1.891,9.605s0.118-4.455,0.118-9.605c0-5.151,0.119-9.326,0.609-9.326
		C287.033,273.089,287.708,277.265,287.708,282.415z"/>
	<path class="st9" d="M287.708,266.923c0,2.126-0.868,3.964-1.171,3.964s0.073-1.839,0.073-3.964s0.074-3.849,0.377-3.849
		C287.29,263.073,287.708,264.797,287.708,266.923z"/>
	<path class="st10" d="M292.35,288.557c0.038-0.225,0.067-0.447,0.081-0.661c4.448-35.14,4.019-84.476-0.053-106.522
		c-0.004-0.019-0.012-0.036-0.016-0.054c-0.099-0.534-0.289-1.021-0.588-1.445c-2.782-3.948-13.41-1.248-23.738,6.031
		c-8.5,5.99-14.143,13.212-14.325,17.783c-0.002,0.014-0.005,0.028-0.006,0.042c-2.541,25.25-2.014,68.251,0.004,105.777
		c0.003,0.046,0.011,0.086,0.014,0.13c0.009,0.108,0.02,0.214,0.035,0.318c0.003,0.019,0.007,0.038,0.01,0.057
		c0.094,0.569,0.289,1.085,0.604,1.532c2.782,3.948,13.41,1.248,23.738-6.031c6.893-4.858,11.906-10.525,13.654-14.932
		c0.298-0.685,0.499-1.348,0.58-1.98C292.347,288.587,292.348,288.571,292.35,288.557z"/>
</g>
<g>
	<path class="st5" d="M311.619,140.617c6.327-9.19,48.272-10.67,43.919-0.942c-15.351,34.302-34.531,72.793-48.328,94.092
		c-6.101,9.419-46.324,7.901-44.615,2.215C269.088,214.368,291.503,169.835,311.619,140.617z"/>
	
		<ellipse transform="matrix(0.9903 -0.1389 0.1389 0.9903 -29.7956 41.8716)" class="st5" cx="285.103" cy="234.414" rx="22.878" ry="8.744"/>
	<g>
		<path class="st4" d="M273.231,228.316c2.914-0.854,5.878-1.548,8.888-2.009c3.007-0.479,6.057-0.746,9.133-0.709
			c3.054,0.097,6.229,0.364,9.111,1.879c0.703,0.398,1.377,0.897,1.919,1.544c0.545,0.644,0.889,1.473,0.983,2.303
			c0.106,0.851-0.163,1.684-0.546,2.367c-0.388,0.693-0.914,1.271-1.499,1.758c0.441-0.62,0.836-1.266,1.079-1.95
			c0.244-0.684,0.296-1.399,0.145-2.047c-0.286-1.343-1.377-2.301-2.648-2.884c-1.273-0.603-2.71-0.93-4.157-1.135
			c-1.45-0.223-2.931-0.305-4.416-0.339c-2.974-0.066-5.97,0.12-8.967,0.356C279.258,227.704,276.254,228.019,273.231,228.316z"/>
	</g>
	<g>
		<path class="st6" d="M275.862,241.185c-1.789,0.336-3.629,0.185-5.379-0.397c-0.865-0.312-1.724-0.729-2.435-1.381
			c-0.72-0.613-1.242-1.601-1.128-2.522c0.394,0.834,0.983,1.378,1.686,1.794c0.7,0.41,1.465,0.733,2.261,0.999
			C272.457,240.247,274.14,240.597,275.862,241.185z"/>
	</g>
	
		<ellipse transform="matrix(0.9903 -0.1389 0.1389 0.9903 -16.3179 47.6476)" class="st5" cx="333.222" cy="140.737" rx="22.878" ry="8.744"/>
	<path class="st8" d="M340.082,153.777c3.649-7.103,7.215-12.549,7.965-12.163c0.75,0.386-1.599,6.456-5.248,13.559
		c-3.649,7.103-7.215,12.549-7.965,12.163C334.084,166.951,336.434,160.88,340.082,153.777z"/>
	<path class="st7" d="M312.317,194.136c6.531-12.714,13.491-23.036,14.655-22.438c1.165,0.598-3.907,11.89-10.438,24.604
		c-6.531,12.714-11.786,23.041-12.951,22.443C302.419,218.148,305.786,206.851,312.317,194.136z"/>
	<path class="st9" d="M312.916,148.238c2.354-4.582,5.636-7.904,6.071-7.68c0.436,0.224-2.141,3.908-4.494,8.49
		c-2.354,4.582-4.368,8.241-4.803,8.018C309.255,156.842,310.563,152.819,312.916,148.238z"/>
	<path class="st9" d="M305.837,162.019c0.971-1.891,2.583-3.13,2.853-2.992c0.27,0.138-0.905,1.602-1.876,3.493
		c-0.971,1.891-1.825,3.39-2.094,3.252C304.45,165.633,304.866,163.91,305.837,162.019z"/>
	<path class="st10" d="M311.593,140.654c-0.136,0.183-0.264,0.367-0.375,0.551c-20.012,29.225-42.174,73.306-48.625,94.777
		c-0.006,0.019-0.006,0.037-0.01,0.056c-0.156,0.521-0.209,1.041-0.137,1.554c0.671,4.783,11.358,7.237,23.871,5.482
		c10.298-1.444,18.618-5.29,20.867-9.273c0.008-0.012,0.017-0.023,0.025-0.035c13.797-21.299,32.977-59.79,48.328-94.092
		c0.019-0.042,0.03-0.081,0.047-0.123c0.041-0.1,0.08-0.2,0.114-0.299c0.006-0.019,0.011-0.037,0.017-0.055
		c0.177-0.549,0.239-1.097,0.163-1.638c-0.671-4.783-11.358-7.237-23.87-5.482c-8.351,1.171-15.4,3.922-18.968,7.044
		c-0.578,0.473-1.06,0.971-1.421,1.496C311.61,140.629,311.601,140.642,311.593,140.654z"/>
</g>
<g>
	<path class="st5" d="M321.596,214.217c6.327-9.19,48.272-10.67,43.919-0.942c-15.351,34.302-34.531,72.793-48.328,94.092
		c-6.101,9.419-46.324,7.901-44.615,2.215C279.066,287.968,301.481,243.435,321.596,214.217z"/>
	
		<ellipse transform="matrix(0.9903 -0.1389 0.1389 0.9903 -39.9221 43.9715)" class="st5" cx="295.08" cy="308.014" rx="22.878" ry="8.744"/>
	<g>
		<path class="st4" d="M283.208,301.916c2.914-0.854,5.878-1.548,8.888-2.009c3.007-0.479,6.057-0.746,9.133-0.709
			c3.054,0.097,6.229,0.364,9.111,1.879c0.703,0.398,1.377,0.897,1.919,1.544c0.545,0.644,0.889,1.473,0.984,2.303
			c0.106,0.851-0.163,1.684-0.546,2.367c-0.388,0.693-0.914,1.271-1.499,1.758c0.441-0.62,0.836-1.266,1.079-1.95
			c0.244-0.684,0.296-1.399,0.145-2.047c-0.286-1.343-1.377-2.301-2.648-2.884c-1.273-0.603-2.71-0.93-4.157-1.135
			c-1.45-0.223-2.931-0.305-4.416-0.339c-2.974-0.066-5.97,0.12-8.967,0.356C289.236,301.304,286.231,301.619,283.208,301.916z"/>
	</g>
	<g>
		<path class="st6" d="M285.839,314.785c-1.789,0.336-3.629,0.185-5.379-0.397c-0.865-0.312-1.724-0.729-2.435-1.381
			c-0.72-0.613-1.242-1.601-1.128-2.522c0.394,0.834,0.983,1.378,1.686,1.794c0.7,0.41,1.465,0.733,2.261,1
			C282.434,313.847,284.117,314.197,285.839,314.785z"/>
	</g>
	
		<ellipse transform="matrix(0.9903 -0.1389 0.1389 0.9903 -26.4439 49.7467)" class="st5" cx="343.2" cy="214.337" rx="22.878" ry="8.744"/>
	
		<ellipse transform="matrix(0.4569 -0.8895 0.8895 0.4569 -12.0257 436.4537)" class="st8" cx="351.419" cy="228.075" rx="14.459" ry="1.528"/>
	<path class="st7" d="M322.294,267.736c6.531-12.714,13.491-23.036,14.655-22.438c1.165,0.598-3.907,11.89-10.438,24.604
		c-6.531,12.714-11.786,23.041-12.951,22.443C312.396,291.747,315.763,280.451,322.294,267.736z"/>
	<path class="st9" d="M322.894,221.838c2.353-4.582,5.636-7.904,6.071-7.68c0.435,0.224-2.141,3.908-4.494,8.49
		c-2.353,4.582-4.368,8.241-4.803,8.018C319.232,230.442,320.54,226.419,322.894,221.838z"/>
	<path class="st9" d="M315.815,235.618c0.971-1.891,2.583-3.13,2.853-2.992c0.27,0.138-0.905,1.602-1.876,3.493
		c-0.971,1.891-1.825,3.39-2.094,3.252S314.843,237.509,315.815,235.618z"/>
	<path class="st10" d="M321.57,214.254c-0.136,0.183-0.264,0.367-0.375,0.551c-20.012,29.225-42.174,73.306-48.625,94.777
		c-0.006,0.019-0.006,0.037-0.01,0.056c-0.156,0.521-0.209,1.041-0.137,1.554c0.671,4.783,11.358,7.237,23.871,5.482
		c10.298-1.444,18.618-5.29,20.867-9.273c0.008-0.012,0.017-0.023,0.025-0.035c13.797-21.299,32.977-59.789,48.328-94.092
		c0.019-0.042,0.03-0.081,0.047-0.123c0.041-0.1,0.08-0.2,0.114-0.299c0.006-0.019,0.011-0.037,0.017-0.055
		c0.177-0.549,0.239-1.097,0.163-1.638c-0.671-4.783-11.358-7.237-23.87-5.482c-8.351,1.171-15.4,3.922-18.968,7.044
		c-0.578,0.473-1.06,0.971-1.421,1.496C321.587,214.229,321.579,214.241,321.57,214.254z"/>
</g>
<g>
	<path class="st5" d="M315.881,382.287c-1.429,11.065-38.063,31.548-38.636,20.905c-2.018-37.526-2.545-80.528-0.004-105.777
		c1.124-11.166,37.595-28.194,38.674-22.356C320.014,297.252,320.423,347.106,315.881,382.287z"/>
	
		<ellipse transform="matrix(0.8174 -0.576 0.576 0.8174 -111.0177 223.2095)" class="st5" cx="296.609" cy="286.738" rx="22.878" ry="8.744"/>
	<g>
		<path class="st4" d="M309.956,286.738c-2.202,2.091-4.521,4.063-6.988,5.848c-2.456,1.799-5.047,3.432-7.8,4.804
			c-2.761,1.309-5.707,2.522-8.963,2.492c-0.808-0.033-1.634-0.169-2.413-0.496c-0.779-0.324-1.464-0.904-1.927-1.599
			c-0.483-0.708-0.624-1.572-0.596-2.355c0.028-0.794,0.232-1.548,0.53-2.249c-0.109,0.753-0.165,1.508-0.069,2.228
			c0.095,0.72,0.376,1.38,0.807,1.887c0.868,1.064,2.276,1.418,3.673,1.355c1.408-0.046,2.835-0.411,4.216-0.89
			c1.392-0.464,2.747-1.068,4.083-1.716c2.676-1.301,5.255-2.835,7.813-4.414C304.874,290.036,307.403,288.384,309.956,286.738z"/>
	</g>
	<g>
		<path class="st6" d="M301.735,276.493c1.438-1.116,3.144-1.823,4.966-2.105c0.911-0.118,1.866-0.139,2.797,0.116
			c0.92,0.216,1.836,0.857,2.156,1.728c-0.731-0.562-1.504-0.777-2.319-0.825c-0.81-0.045-1.638,0.017-2.468,0.144
			C305.193,275.772,303.536,276.229,301.735,276.493z"/>
	</g>
	<path class="st5" d="M315.31,378.873c2.782,3.948-3.335,13.048-13.664,20.326c-10.328,7.278-20.956,9.978-23.738,6.031
		c-2.782-3.948,3.336-13.048,13.664-20.326C301.9,377.625,312.528,374.925,315.31,378.873z"/>
	<path class="st8" d="M284.549,383.586c0,7.985-0.684,14.459-1.528,14.459s-1.528-6.473-1.528-14.459s0.684-14.458,1.528-14.458
		S284.549,375.601,284.549,383.586z"/>
	<path class="st7" d="M290.806,335c0,14.294-1.474,26.655-2.784,26.655s-1.958-12.361-1.958-26.655
		c0-14.294-0.044-25.881,1.265-25.881S290.806,320.707,290.806,335z"/>
	<path class="st9" d="M311.244,376.101c0,5.151-1.402,9.605-1.891,9.605c-0.49,0,0.118-4.455,0.118-9.605
		c0-5.151,0.119-9.326,0.609-9.326C310.57,366.775,311.244,370.95,311.244,376.101z"/>
	<path class="st9" d="M311.244,360.609c0,2.126-0.868,3.964-1.171,3.964c-0.303,0,0.073-1.839,0.073-3.964
		c0-2.126,0.074-3.849,0.377-3.849S311.244,358.483,311.244,360.609z"/>
	<path class="st10" d="M315.887,382.243c0.038-0.225,0.067-0.447,0.081-0.661c4.448-35.14,4.019-84.476-0.053-106.522
		c-0.004-0.019-0.012-0.036-0.016-0.054c-0.099-0.534-0.289-1.021-0.588-1.445c-2.782-3.948-13.41-1.248-23.738,6.03
		c-8.5,5.99-14.143,13.212-14.325,17.783c-0.002,0.014-0.005,0.028-0.006,0.042c-2.541,25.25-2.014,68.251,0.004,105.777
		c0.003,0.046,0.011,0.086,0.014,0.13c0.009,0.108,0.02,0.214,0.035,0.318c0.003,0.019,0.007,0.038,0.01,0.057
		c0.094,0.569,0.289,1.085,0.604,1.532c2.782,3.948,13.41,1.248,23.738-6.031c6.893-4.858,11.906-10.525,13.654-14.932
		c0.298-0.685,0.499-1.348,0.58-1.98C315.883,382.273,315.885,382.257,315.887,382.243z"/>
</g>
<g>
	<path class="st5" d="M227.843,328.75c12.228,0.102,39.325,37.274,27.82,39.294c-40.567,7.124-87.288,13.343-115.095,13.895
		c-12.297,0.244-35.615-37.205-29.404-39.145C134.774,335.42,188.966,328.428,227.843,328.75z"/>
	
		<ellipse transform="matrix(0.7425 -0.6698 0.6698 0.7425 -210.1085 177.949)" class="st5" cx="126.407" cy="362.266" rx="9.584" ry="25.074"/>
	<g>
		<path class="st4" d="M124.655,347.744c2.545,2.141,4.981,4.417,7.239,6.872c2.271,2.442,4.382,5.047,6.233,7.859
			c1.785,2.828,3.49,5.868,3.89,9.393c0.072,0.878,0.036,1.788-0.214,2.671c-0.245,0.883-0.778,1.697-1.465,2.29
			c-0.698,0.615-1.609,0.887-2.461,0.965c-0.863,0.079-1.71-0.037-2.513-0.26c0.832,0.029,1.662-0.002,2.437-0.196
			c0.775-0.193,1.467-0.579,1.971-1.118c1.063-1.089,1.272-2.689,1.023-4.211c-0.231-1.536-0.816-3.048-1.518-4.493
			c-0.688-1.458-1.524-2.856-2.406-4.228c-1.77-2.744-3.783-5.349-5.848-7.919C128.944,352.81,126.8,350.287,124.655,347.744z"/>
	</g>
	<g>
		<path class="st6" d="M123.521,367.905c-1.875-0.955-3.563-2.283-5.055-3.78c-1.498-1.498-2.814-3.175-3.951-4.97
			c-1.107-1.81-2.072-3.737-2.606-5.829c-0.267-1.042-0.417-2.132-0.333-3.225c0.117-1.075,0.532-2.215,1.424-2.823
			c-0.676,0.823-0.875,1.845-0.793,2.836c0.069,0.995,0.333,1.971,0.664,2.922c0.688,1.898,1.652,3.709,2.736,5.438
			c1.072,1.74,2.297,3.389,3.599,4.977C120.533,365.016,121.928,366.538,123.521,367.905z"/>
	</g>
	
		<ellipse transform="matrix(0.7425 -0.6698 0.6698 0.7425 -171.3398 251.1448)" class="st5" cx="240.998" cy="348.437" rx="9.584" ry="25.074"/>
	
		<ellipse transform="matrix(0.9928 -0.1198 0.1198 0.9928 -42.272 27.8324)" class="st7" cx="210.32" cy="365.454" rx="39.064" ry="3.349"/>
	<path class="st8" d="M172.336,338.531c18.359-2.216,34.44-2.447,34.511-1.859c0.071,0.588-15.895,1.774-34.254,3.99
		c-18.359,2.216-33.069,5.453-33.14,4.864C139.382,344.938,153.976,340.747,172.336,338.531z"/>
	<path class="st9" d="M221.721,334.607c5.605-0.676,10.636,0.264,10.7,0.797c0.064,0.533-4.863,0.456-10.467,1.133
		c-5.605,0.676-10.164,1.095-10.228,0.562C211.662,336.566,216.117,335.284,221.721,334.607z"/>
	<path class="st7" d="M182.922,358.685c15.731-1.898,29.603-0.642,29.783,0.848c0.18,1.491-13.4,2.651-29.131,4.55
		c-15.731,1.899-27.805,5.563-27.985,4.073C155.409,366.666,167.191,360.584,182.922,358.685z"/>
</g>
<g>
	<path class="st5" d="M132.493,226.371c-10.033,6.99-53.639-7.66-45.422-15.963c28.972-29.275,63.488-61.372,85.853-77.905
		c9.89-7.311,50.572,9.75,46.627,14.926C204.557,167.1,164.394,204.148,132.493,226.371z"/>
	
		<ellipse transform="matrix(0.2183 -0.9759 0.9759 0.2183 16.1271 300.853)" class="st5" cx="195.854" cy="140.36" rx="9.584" ry="25.074"/>
	<g>
		<path class="st4" d="M205.684,151.193c-3.314-0.274-6.618-0.722-9.88-1.419c-3.265-0.679-6.494-1.583-9.63-2.806
			c-3.091-1.275-6.241-2.768-8.606-5.413c-0.567-0.674-1.064-1.438-1.37-2.302c-0.31-0.862-0.347-1.834-0.13-2.715
			c0.214-0.905,0.799-1.655,1.449-2.211c0.658-0.564,1.416-0.959,2.2-1.242c-0.696,0.457-1.354,0.963-1.874,1.569
			c-0.521,0.606-0.861,1.321-0.961,2.052c-0.237,1.503,0.518,2.93,1.6,4.027c1.077,1.12,2.429,2.015,3.837,2.787
			c1.405,0.791,2.895,1.449,4.408,2.057c3.031,1.214,6.18,2.175,9.351,3.078C199.255,149.542,202.463,150.359,205.684,151.193z"/>
	</g>
	<g>
		<path class="st6" d="M194.948,134.091c2.081-0.306,4.226-0.198,6.31,0.16c2.089,0.356,4.132,0.962,6.098,1.769
			c1.95,0.836,3.851,1.85,5.498,3.248c0.82,0.695,1.573,1.498,2.137,2.438c0.527,0.945,0.848,2.114,0.471,3.127
			c0.076-1.062-0.353-2.012-0.993-2.772c-0.631-0.772-1.412-1.415-2.232-2c-1.659-1.15-3.493-2.07-5.377-2.854
			c-1.881-0.799-3.834-1.436-5.815-1.978C199.056,134.72,197.038,134.285,194.948,134.091z"/>
	</g>
	
		<ellipse transform="matrix(0.2183 -0.9759 0.9759 0.2183 -126.3837 278.0652)" class="st5" cx="110.375" cy="217.921" rx="9.584" ry="25.074"/>
	<path class="st7" d="M127.808,188.775c-15.978,14.498-29.938,25.14-31.18,23.77c-1.243-1.37,10.702-14.232,26.68-28.73
		c15.978-14.498,29.938-25.14,31.18-23.77C155.731,161.415,143.786,174.278,127.808,188.775z"/>
	<path class="st8" d="M152.407,171.193c-11.602,10.527-22.721,18.434-23.685,17.371c-0.964-1.063,8.592-10.693,20.193-21.22
		c11.602-10.527,20.974-19.096,21.938-18.034C171.818,150.374,164.009,160.666,152.407,171.193z"/>
	<path class="st9" d="M134.099,218.052c-4.181,3.793-8.829,5.936-9.189,5.539c-0.361-0.397,3.703-3.185,7.883-6.978
		c4.181-3.793,7.658-6.772,8.018-6.374C141.173,210.636,138.28,214.259,134.099,218.052z"/>
	<path class="st9" d="M146.674,206.643c-1.726,1.566-3.857,2.216-4.08,1.97c-0.223-0.246,1.546-1.295,3.272-2.86
		c1.726-1.566,3.179-2.775,3.402-2.529S148.4,205.077,146.674,206.643z"/>
	<path class="st10" d="M132.026,226.804c0.21-0.135,0.412-0.275,0.597-0.421c31.797-22.269,71.526-58.952,86.421-78.494
		c0.013-0.017,0.02-0.036,0.032-0.053c0.361-0.474,0.616-0.987,0.74-1.542c1.155-5.165-8.863-11.803-22.377-14.826
		c-11.122-2.488-21.14-1.749-24.984,1.469c-0.013,0.009-0.027,0.017-0.039,0.026c-22.365,16.534-56.881,48.63-85.853,77.905
		c-0.035,0.036-0.062,0.072-0.095,0.108c-0.081,0.086-0.159,0.174-0.232,0.263c-0.013,0.017-0.026,0.034-0.039,0.05
		c-0.393,0.495-0.668,1.033-0.799,1.618c-1.155,5.165,8.863,11.803,22.377,14.826c9.019,2.018,17.311,1.912,22.176,0.085
		c0.775-0.263,1.462-0.588,2.034-0.987C131.999,226.824,132.012,226.814,132.026,226.804z"/>
</g>
<g>
	<path class="st5" d="M206.845,301.856c7.332,8.41-1.645,49.41-9.988,42.778c-29.419-23.385-61.945-51.518-79.153-70.169
		c-7.61-8.248,3.843-46.835,8.928-43.769C145.957,242.351,183.533,275.117,206.845,301.856z"/>
	<path class="st5" d="M125.109,230.153c4.799,0.537,7.551,11.152,6.145,23.708c-1.406,12.557-6.436,22.3-11.235,21.763
		c-4.799-0.537-7.551-11.152-6.145-23.708C115.279,239.359,120.309,229.616,125.109,230.153z"/>
	<g>
		<path class="st4" d="M131.418,242.902c0.104,3.035,0.041,6.078-0.26,9.108c-0.283,3.031-0.781,6.053-1.58,9.023
			c-0.852,2.935-1.899,5.944-4.081,8.36c-0.561,0.582-1.211,1.111-1.972,1.476c-0.759,0.368-1.648,0.496-2.475,0.381
			c-0.85-0.109-1.591-0.576-2.158-1.117c-0.575-0.548-1.005-1.201-1.331-1.889c0.491,0.581,1.019,1.124,1.621,1.529
			c0.602,0.407,1.282,0.634,1.947,0.648c1.372,0.057,2.571-0.763,3.451-1.85c0.9-1.084,1.574-2.394,2.131-3.745
			c0.576-1.349,1.023-2.764,1.425-4.194c0.802-2.865,1.365-5.813,1.88-8.775C130.515,248.893,130.955,245.904,131.418,242.902z"/>
	</g>
	<g>
		<path class="st6" d="M118.298,242.256c0.119-1.816,0.722-3.561,1.719-5.112c0.516-0.76,1.134-1.489,1.942-2.016
			c0.772-0.545,1.86-0.806,2.723-0.467c-0.905,0.175-1.579,0.61-2.156,1.188c-0.571,0.576-1.074,1.237-1.529,1.943
			C120.052,239.191,119.295,240.734,118.298,242.256z"/>
	</g>
	
		<ellipse transform="matrix(0.1112 -0.9938 0.9938 0.1112 -141.7831 486.9669)" class="st5" cx="201.367" cy="322.753" rx="22.878" ry="8.744"/>
	<path class="st8" d="M187.032,326.162c5.975,5.297,10.365,10.103,9.805,10.735c-0.56,0.631-5.857-3.151-11.832-8.449
		c-5.975-5.297-10.365-10.103-9.805-10.735C175.759,317.082,181.057,320.865,187.032,326.162z"/>
	<path class="st7" d="M154.827,289.248c10.695,9.482,18.967,18.786,18.099,19.766c-0.869,0.98-10.548-6.736-21.244-16.218
		s-19.395-17.136-18.527-18.116C134.024,273.7,144.131,279.766,154.827,289.248z"/>
	<path class="st9" d="M199.141,301.221c3.854,3.417,6.258,7.421,5.933,7.787c-0.325,0.366-3.255-3.044-7.109-6.461
		c-3.854-3.417-6.899-6.276-6.575-6.643C191.714,295.538,195.286,297.804,199.141,301.221z"/>
	<path class="st9" d="M187.548,290.943c1.591,1.41,2.391,3.279,2.19,3.506c-0.201,0.227-1.327-1.274-2.918-2.685
		c-1.591-1.41-2.831-2.609-2.63-2.836C184.391,288.702,185.957,289.533,187.548,290.943z"/>
	<path class="st10" d="M206.816,301.821c-0.144-0.177-0.29-0.346-0.441-0.5c-23.343-26.639-60.545-59.048-79.743-70.627
		c-0.017-0.01-0.034-0.015-0.051-0.024c-0.466-0.28-0.956-0.461-1.472-0.519c-4.799-0.537-9.83,9.206-11.235,21.763
		c-1.157,10.335,0.504,19.348,3.803,22.516c0.009,0.01,0.018,0.022,0.027,0.033c17.208,18.652,49.734,46.785,79.153,70.169
		c0.036,0.028,0.071,0.049,0.107,0.076c0.086,0.065,0.173,0.127,0.262,0.185c0.016,0.01,0.033,0.02,0.049,0.03
		c0.488,0.307,1.003,0.504,1.547,0.564c4.799,0.537,9.83-9.206,11.235-21.763c0.938-8.381,0.023-15.891-2.116-20.123
		c-0.315-0.677-0.678-1.268-1.096-1.747C206.836,301.844,206.825,301.832,206.816,301.821z"/>
</g>
<g>
	<path class="st11" d="M144.006,278.626c2.869-3.089,81.395,2.257,93.905,12.732c3.711,3.108-1.835,67.992-7.022,71.785
		c-0.576,0.421-3.544,2.76-4.406,2.926c-19.6,3.769-82.946-8.442-89.054-14.153c-13.951-13.043-4.021-56.611,2.985-69.248
		C141.035,281.546,143.481,279.192,144.006,278.626z"/>
	<path class="st5" d="M140.413,282.668c2.869-3.089,81.395,2.257,93.905,12.732c3.711,3.108-0.679,68.469-8.271,70.88
		c-16.164,5.134-85.835-4.36-92.212-10.322C118.645,341.756,133.973,289.603,140.413,282.668z"/>
	<path class="st7" d="M147.645,290.078c2.364-2.546,67.074,1.86,77.383,10.492c3.058,2.561-0.559,56.422-6.815,58.409
		c-13.32,4.231-7.52-41.129-12.775-46.042C192.92,301.235,142.338,295.793,147.645,290.078z"/>
	<path class="st8" d="M141.138,344.915c0.103-0.92,8.592-0.726,18.961,0.435c10.369,1.161,18.691,2.848,18.588,3.768
		c-0.103,0.92-8.592,0.726-18.961-0.435C149.357,347.522,141.035,345.835,141.138,344.915z"/>
	<path class="st10" d="M133.836,355.958c6.377,5.962,76.048,15.456,92.212,10.322c0.143-0.045,0.284-0.12,0.425-0.21
		c0.003-0.001,0.007-0.001,0.01-0.002c0.861-0.166,3.83-2.504,4.406-2.926c5.187-3.793,10.734-68.678,7.022-71.785
		c-12.51-10.475-91.036-15.821-93.904-12.732c-0.525,0.566-2.971,2.92-3.593,4.042C133.973,289.603,118.645,341.756,133.836,355.958
		z"/>
</g>
<g>
	<path class="st11" d="M124.242,204.312c-3.241-2.696-2.177-81.397,7.602-94.458c2.901-3.875,67.991-1.869,72.061,3.105
		c0.452,0.552,2.949,3.389,3.161,4.24c4.83,19.366-3.915,83.282-9.284,89.692c-12.264,14.64-56.309,7.096-69.308,0.789
		C127.319,207.119,124.835,204.805,124.242,204.312z"/>
	<path class="st5" d="M128.473,207.679c-3.241-2.696-2.177-81.397,7.602-94.458c2.901-3.875,68.404-3.049,71.225,4.4
		c6.006,15.86,0.318,85.945-5.287,92.637C188.659,226.199,135.749,213.732,128.473,207.679z"/>
	<path class="st7" d="M135.479,200.054c-2.671-2.222-1.794-67.076,6.264-77.839c2.391-3.193,56.369-2.513,58.694,3.626
		c4.949,13.07-40.659,9.748-45.278,15.262C144.155,154.239,141.475,205.042,135.479,200.054z"/>
	<path class="st8" d="M190.589,203.567c-0.925-0.053-1.192-8.54-0.598-18.957c0.595-10.417,1.826-18.818,2.751-18.766
		c0.925,0.053,1.192,8.54,0.598,18.957C192.745,195.218,191.513,203.62,190.589,203.567z"/>
	<path class="st10" d="M202.013,210.258c5.606-6.692,11.294-76.776,5.287-92.637c-0.053-0.14-0.136-0.278-0.233-0.413
		c-0.001-0.003-0.001-0.007-0.002-0.01c-0.212-0.851-2.709-3.688-3.161-4.24c-4.07-4.973-69.16-6.979-72.061-3.105
		c-9.779,13.062-10.843,91.762-7.602,94.458c0.593,0.494,3.077,2.807,4.232,3.367C135.749,213.732,188.659,226.199,202.013,210.258z
		"/>
</g>
<g>
	<path class="st5" d="M264.159,323.962c7.332,8.41-1.645,49.41-9.988,42.778c-29.419-23.385-61.945-51.518-79.153-70.169
		c-7.61-8.248,3.843-46.835,8.928-43.769C203.271,264.457,240.847,297.224,264.159,323.962z"/>
	
		<ellipse transform="matrix(0.1112 -0.9938 0.9938 0.1112 -113.4207 423.1646)" class="st5" cx="179.877" cy="274.995" rx="22.878" ry="8.744"/>
	<g>
		<path class="st4" d="M188.731,265.008c0.104,3.035,0.041,6.078-0.26,9.108c-0.283,3.031-0.781,6.053-1.579,9.023
			c-0.852,2.935-1.899,5.944-4.081,8.36c-0.561,0.582-1.21,1.111-1.972,1.476c-0.759,0.368-1.648,0.496-2.475,0.381
			c-0.85-0.109-1.591-0.576-2.158-1.117c-0.575-0.548-1.005-1.201-1.331-1.889c0.491,0.581,1.019,1.124,1.621,1.529
			c0.602,0.407,1.282,0.634,1.947,0.648c1.372,0.057,2.571-0.763,3.451-1.85c0.9-1.083,1.574-2.394,2.131-3.745
			c0.576-1.349,1.023-2.764,1.425-4.194c0.802-2.865,1.365-5.813,1.88-8.775C187.828,270.999,188.269,268.01,188.731,265.008z"/>
	</g>
	<g>
		<path class="st6" d="M175.612,264.363c0.119-1.816,0.722-3.561,1.719-5.112c0.516-0.76,1.134-1.489,1.942-2.016
			c0.772-0.545,1.86-0.806,2.723-0.467c-0.905,0.175-1.579,0.61-2.156,1.188c-0.571,0.576-1.074,1.237-1.529,1.943
			C177.366,261.297,176.609,262.84,175.612,264.363z"/>
	</g>
	
		<ellipse transform="matrix(0.1112 -0.9938 0.9938 0.1112 -112.8146 563.5713)" class="st5" cx="258.68" cy="344.859" rx="22.878" ry="8.744"/>
	
		<ellipse transform="matrix(0.6634 -0.7483 0.7483 0.6634 -179.5471 299.6918)" class="st8" cx="243.332" cy="349.411" rx="1.528" ry="14.459"/>
	<path class="st7" d="M212.141,311.355c10.695,9.482,18.967,18.786,18.099,19.766c-0.869,0.98-10.548-6.736-21.244-16.218
		c-10.695-9.482-19.395-17.136-18.526-18.116C191.337,295.807,201.445,301.872,212.141,311.355z"/>
	<path class="st9" d="M256.454,323.327c3.854,3.417,6.258,7.421,5.933,7.787c-0.325,0.366-3.255-3.044-7.109-6.461
		s-6.899-6.276-6.575-6.643C249.028,317.645,252.6,319.91,256.454,323.327z"/>
	<path class="st9" d="M244.861,313.049c1.591,1.41,2.391,3.279,2.19,3.506c-0.201,0.227-1.327-1.274-2.918-2.685
		c-1.591-1.41-2.831-2.609-2.63-2.836C241.704,310.808,243.271,311.639,244.861,313.049z"/>
	<path class="st10" d="M264.129,323.928c-0.144-0.177-0.29-0.346-0.441-0.5c-23.343-26.64-60.545-59.048-79.743-70.627
		c-0.017-0.01-0.034-0.015-0.051-0.024c-0.466-0.28-0.956-0.461-1.472-0.519c-4.799-0.537-9.83,9.206-11.235,21.763
		c-1.157,10.335,0.504,19.348,3.803,22.516c0.009,0.01,0.018,0.022,0.027,0.033c17.208,18.652,49.734,46.785,79.153,70.169
		c0.036,0.028,0.071,0.049,0.107,0.076c0.086,0.065,0.173,0.127,0.262,0.185c0.017,0.01,0.033,0.02,0.049,0.03
		c0.488,0.307,1.003,0.504,1.547,0.565c4.799,0.537,9.83-9.206,11.235-21.763c0.938-8.381,0.023-15.891-2.116-20.123
		c-0.315-0.677-0.678-1.268-1.096-1.747C264.149,323.95,264.139,323.939,264.129,323.928z"/>
</g>
<g>
	<path class="st5" d="M240.062,171.24c10.611-3.447,44.809,20.886,35.436,25.961c-33.047,17.894-71.68,36.785-95.586,45.302
		c-10.571,3.766-41.578-21.9-36.764-25.374C161.449,203.92,206.325,182.201,240.062,171.24z"/>
	
		<ellipse transform="matrix(0.492 -0.8706 0.8706 0.492 -117.5838 257.6352)" class="st5" cx="161.97" cy="229.573" rx="8.744" ry="22.878"/>
	<g>
		<path class="st4" d="M156.255,217.512c2.833,1.094,5.608,2.346,8.277,3.81c2.678,1.449,5.262,3.091,7.681,4.991
			c2.366,1.934,4.723,4.077,6.09,7.033c0.316,0.744,0.547,1.549,0.585,2.393c0.041,0.843-0.19,1.71-0.62,2.426
			c-0.433,0.739-1.154,1.237-1.873,1.547c-0.729,0.314-1.499,0.453-2.259,0.484c0.727-0.224,1.433-0.497,2.042-0.892
			c0.61-0.395,1.086-0.931,1.36-1.537c0.59-1.24,0.306-2.664-0.348-3.899c-0.644-1.252-1.585-2.386-2.61-3.429
			c-1.015-1.059-2.142-2.024-3.3-2.955c-2.321-1.861-4.812-3.535-7.335-5.17C161.412,220.692,158.836,219.114,156.255,217.512z"/>
	</g>
	<g>
		<path class="st6" d="M150.517,229.328c-1.624-0.821-2.993-2.06-4.028-3.586c-0.497-0.773-0.925-1.627-1.093-2.577
			c-0.199-0.924-0.012-2.027,0.638-2.688c-0.194,0.901-0.058,1.691,0.247,2.449c0.306,0.751,0.717,1.473,1.187,2.169
			C148.385,226.512,149.508,227.814,150.517,229.328z"/>
	</g>
	
		<ellipse transform="matrix(0.492 -0.8706 0.8706 0.492 -29.9744 317.5777)" class="st5" cx="257.139" cy="184.473" rx="8.744" ry="22.878"/>
	<path class="st8" d="M254.654,198.997c7.216-3.42,13.359-5.574,13.72-4.811c0.361,0.762-5.196,4.153-12.411,7.572
		c-7.216,3.42-13.359,5.574-13.72,4.811C241.881,205.807,247.438,202.417,254.654,198.997z"/>
	<path class="st7" d="M208.069,214.15c12.917-6.121,24.719-10.082,25.279-8.899c0.561,1.183-10.332,7.063-23.249,13.184
		c-12.917,6.121-23.369,11.123-23.929,9.94C185.609,227.191,195.152,220.271,208.069,214.15z"/>
	<path class="st9" d="M236.458,178.079c4.655-2.206,9.28-2.847,9.49-2.404c0.21,0.442-4.076,1.801-8.731,4.007
		c-4.655,2.206-8.479,3.886-8.689,3.444C228.319,182.682,231.803,180.284,236.458,178.079z"/>
	<path class="st9" d="M222.457,184.713c1.921-0.91,3.954-0.914,4.084-0.64c0.13,0.274-1.693,0.721-3.614,1.632
		c-1.921,0.91-3.51,1.582-3.64,1.308C219.158,186.739,220.536,185.624,222.457,184.713z"/>
	<path class="st10" d="M240.019,171.254c-0.22,0.063-0.432,0.131-0.632,0.21c-33.659,11.029-78.059,32.544-96.238,45.665
		c-0.016,0.011-0.027,0.026-0.042,0.038c-0.44,0.319-0.799,0.699-1.054,1.151c-2.376,4.204,4.615,12.652,15.615,18.869
		c9.054,5.116,17.996,7.123,22.204,5.33c0.013-0.005,0.028-0.008,0.041-0.012c23.905-8.517,62.539-27.407,95.586-45.302
		c0.04-0.022,0.073-0.047,0.112-0.069c0.094-0.054,0.185-0.11,0.273-0.168c0.016-0.011,0.031-0.022,0.047-0.034
		c0.474-0.328,0.857-0.726,1.126-1.202c2.376-4.204-4.615-12.652-15.615-18.869c-7.342-4.149-14.61-6.252-19.341-5.944
		c-0.746,0.024-1.432,0.127-2.037,0.323C240.048,171.244,240.034,171.249,240.019,171.254z"/>
</g>
<ellipse transform="matrix(0.4231 -0.9061 0.9061 0.4231 -49.6346 555.1971)" class="st12" cx="411.195" cy="316.578" rx="17.393" ry="9.489"/>
<path class="st12" d="M336.065,86.862c8.544,4.389,13.53,11.726,11.135,16.387c-2.394,4.661-13.51,9.76-22.055,5.371
	c-8.544-4.389-11.281-16.604-8.887-21.265C318.653,82.694,327.52,82.473,336.065,86.862z"/>
<path class="st12" d="M90.682,325.263c-1.386,2.968-4.915,4.25-7.883,2.864c-2.968-1.386-4.25-4.915-2.864-7.883
	c1.386-2.968,4.915-4.25,7.883-2.864C90.785,318.765,92.067,322.295,90.682,325.263z"/>
<g>
	<path class="st5" d="M149.696,163.233c-7.372-9.756,5.583-53.895,14.197-46.005c30.373,27.82,63.778,61.07,81.163,82.78
		c7.688,9.6-7.79,50.911-13.113,47.169C211.707,232.954,173.135,194.252,149.696,163.233z"/>
	
		<ellipse transform="matrix(0.1804 -0.9836 0.9836 0.1804 -24.4283 417.1327)" class="st5" cx="238.091" cy="223.225" rx="25.074" ry="9.584"/>
	<g>
		<path class="st4" d="M227.646,233.465c0.146-3.323,0.466-6.641,1.036-9.927c0.552-3.288,1.331-6.55,2.432-9.731
			c1.154-3.138,2.525-6.343,5.076-8.809c0.652-0.592,1.396-1.118,2.248-1.458c0.85-0.344,1.82-0.418,2.708-0.235
			c0.913,0.179,1.684,0.735,2.265,1.363c0.589,0.636,1.013,1.378,1.326,2.151c-0.484-0.677-1.015-1.316-1.64-1.812
			c-0.625-0.497-1.353-0.81-2.088-0.881c-1.511-0.179-2.907,0.631-3.962,1.755c-1.077,1.12-1.919,2.505-2.637,3.942
			c-0.736,1.434-1.336,2.949-1.885,4.484c-1.096,3.076-1.935,6.259-2.714,9.462C229.047,226.977,228.354,230.215,227.646,233.465z"
			/>
	</g>
	<g>
		<path class="st6" d="M244.32,222.077c0.386,2.068,0.362,4.216,0.084,6.311c-0.275,2.101-0.802,4.166-1.532,6.162
			c-0.76,1.981-1.7,3.92-3.033,5.619c-0.663,0.847-1.436,1.63-2.354,2.23c-0.924,0.563-2.08,0.929-3.106,0.592
			c1.064,0.035,1.996-0.431,2.732-1.1c0.747-0.66,1.36-1.466,1.912-2.307c1.085-1.703,1.934-3.57,2.644-5.483
			c0.726-1.911,1.287-3.886,1.752-5.887C243.851,226.206,244.208,224.173,244.32,222.077z"/>
	</g>
	
		<ellipse transform="matrix(0.1804 -0.9836 0.9836 0.1804 -9.5863 270.1057)" class="st5" cx="157.287" cy="140.805" rx="25.074" ry="9.584"/>
	<path class="st7" d="M187.084,157.1c-15.104-15.406-26.278-28.944-24.957-30.239c1.321-1.295,14.635,10.145,29.739,25.55
		c15.104,15.406,26.278,28.944,24.957,30.239C215.502,183.945,202.188,172.506,187.084,157.1z"/>
	<path class="st8" d="M191.281,201.279c-12.946-13.205-22.931-25.813-22.508-26.228c0.423-0.415,11.094,11.52,24.04,24.725
		c12.946,13.205,24.478,22.894,24.054,23.309C216.445,223.5,204.227,214.484,191.281,201.279z"/>
	<path class="st9" d="M158.071,164.517c-3.952-4.031-6.273-8.593-5.89-8.968c0.383-0.376,3.325,3.577,7.277,7.608
		c3.952,4.031,7.063,7.391,6.679,7.766C165.755,171.299,162.023,168.548,158.071,164.517z"/>
	<path class="st7" d="M200.807,180.602c-11.093-11.315-18.551-23.078-17.479-24.129c1.072-1.051,10.269,9.008,21.362,20.322
		c11.093,11.315,21.357,18.654,20.285,19.705C223.903,197.551,211.9,191.917,200.807,180.602z"/>
	<path class="st10" d="M149.246,162.783c0.143,0.205,0.29,0.401,0.444,0.58c23.481,30.913,61.671,69.196,81.773,83.325
		c0.018,0.012,0.036,0.019,0.054,0.03c0.488,0.342,1.01,0.577,1.569,0.68c5.206,0.955,11.452-9.312,13.95-22.933
		c2.056-11.21,0.931-21.192-2.433-24.908c-0.009-0.012-0.018-0.026-0.027-0.038c-17.385-21.71-50.791-54.96-81.163-82.78
		c-0.037-0.034-0.074-0.059-0.111-0.091c-0.09-0.078-0.18-0.153-0.272-0.222c-0.017-0.013-0.035-0.025-0.052-0.037
		c-0.51-0.373-1.058-0.628-1.648-0.736c-5.206-0.955-11.452,9.312-13.95,22.933c-1.668,9.091-1.242,17.372,0.772,22.162
		c0.293,0.764,0.644,1.438,1.065,1.994C149.226,162.757,149.236,162.77,149.246,162.783z"/>
</g>
<g>
	<path class="st13" d="M219.497,210.102c2.25-0.499,4.397,0.555,4.397,0.555s-1.501,1.862-3.751,2.361
		c-2.25,0.499-4.397-0.555-4.397-0.555S217.246,210.6,219.497,210.102z"/>
	<g>
		<path class="st14" d="M215.745,212.462c0,0,0.034,0.016,0.095,0.044c0.654-0.518,1.568-1.084,2.665-1.327
			c1.974-0.437,3.866,0.318,4.302,0.511c0.687-0.544,1.086-1.034,1.086-1.034s-2.147-1.053-4.397-0.555
			C217.246,210.6,215.745,212.462,215.745,212.462z"/>
	</g>
</g>
<g>
	<path class="st13" d="M223.22,178.057c0,2.305-1.493,4.173-1.493,4.173s-1.493-1.868-1.493-4.173c0-2.305,1.493-4.173,1.493-4.173
		S223.22,175.752,223.22,178.057z"/>
	<g>
		<path class="st14" d="M221.726,173.884c0,0-0.023,0.03-0.063,0.083c0.364,0.75,0.719,1.765,0.719,2.889
			c0,2.021-1.147,3.706-1.43,4.09c0.383,0.789,0.774,1.284,0.774,1.284s1.493-1.868,1.493-4.173
			C223.22,175.752,221.726,173.884,221.726,173.884z"/>
	</g>
</g>
<g>
	<path class="st13" d="M189.168,226.941c0,2.305-1.493,4.173-1.493,4.173s-1.493-1.868-1.493-4.173s1.493-4.173,1.493-4.173
		S189.168,224.636,189.168,226.941z"/>
	<g>
		<path class="st14" d="M187.675,222.767c0,0-0.023,0.03-0.063,0.083c0.364,0.75,0.719,1.765,0.719,2.889
			c0,2.021-1.147,3.706-1.43,4.09c0.383,0.789,0.774,1.284,0.774,1.284s1.493-1.868,1.493-4.173
			C189.168,224.636,187.675,222.767,187.675,222.767z"/>
	</g>
</g>
<g>
	<path class="st13" d="M248.652,254.577c0,2.305-1.493,4.173-1.493,4.173s-1.493-1.868-1.493-4.173c0-2.305,1.493-4.173,1.493-4.173
		S248.652,252.273,248.652,254.577z"/>
	<g>
		<path class="st14" d="M247.159,250.404c0,0-0.023,0.03-0.063,0.083c0.364,0.75,0.719,1.765,0.719,2.889
			c0,2.021-1.147,3.706-1.43,4.09c0.383,0.789,0.774,1.284,0.774,1.284s1.493-1.868,1.493-4.173
			C248.652,252.273,247.159,250.404,247.159,250.404z"/>
	</g>
</g>
<g>
	<path class="st13" d="M163.821,244.245c2.259-0.456,4.386,0.637,4.386,0.637s-1.536,1.833-3.795,2.29
		c-2.259,0.456-4.386-0.637-4.386-0.637S161.562,244.702,163.821,244.245z"/>
	<g>
		<path class="st14" d="M160.026,246.535c0,0,0.034,0.017,0.094,0.045c0.663-0.505,1.588-1.054,2.689-1.277
			c1.981-0.4,3.86,0.391,4.292,0.592c0.697-0.531,1.106-1.013,1.106-1.013s-2.127-1.093-4.386-0.637
			C161.562,244.702,160.026,246.535,160.026,246.535z"/>
	</g>
</g>
<g>
	<path class="st13" d="M313.397,254.028c-2.161,0.802-4.432,0.054-4.432,0.054s1.232-2.05,3.392-2.853
		c2.161-0.803,4.432-0.054,4.432-0.054S315.557,253.226,313.397,254.028z"/>
	<g>
		<path class="st14" d="M316.789,251.176c0,0-0.036-0.012-0.1-0.03c-0.577,0.602-1.405,1.289-2.458,1.68
			c-1.895,0.704-3.874,0.215-4.332,0.084c-0.606,0.633-0.934,1.173-0.934,1.173s2.271,0.749,4.432-0.053
			C315.557,253.226,316.789,251.176,316.789,251.176z"/>
	</g>
</g>
<g>
	<path class="st13" d="M333.222,237.279c0,2.305-1.493,4.173-1.493,4.173s-1.493-1.868-1.493-4.173c0-2.305,1.493-4.173,1.493-4.173
		S333.222,234.974,333.222,237.279z"/>
	<g>
		<path class="st14" d="M331.729,233.106c0,0-0.023,0.03-0.063,0.083c0.364,0.75,0.719,1.765,0.719,2.889
			c0,2.021-1.148,3.706-1.43,4.09c0.383,0.789,0.774,1.284,0.774,1.284s1.493-1.868,1.493-4.173
			C333.222,234.974,331.729,233.106,331.729,233.106z"/>
	</g>
</g>
<g>
	<path class="st13" d="M277.433,268.353c2.249,0.503,3.747,2.368,3.747,2.368s-2.149,1.049-4.399,0.546
		c-2.249-0.503-3.747-2.368-3.747-2.368S275.184,267.85,277.433,268.353z"/>
	<g>
		<path class="st14" d="M273.034,268.899c0,0,0.024,0.029,0.068,0.08c0.812-0.191,1.88-0.316,2.976-0.071
			c1.973,0.441,3.366,1.929,3.679,2.288c0.853-0.201,1.422-0.475,1.422-0.475s-1.497-1.865-3.747-2.368
			C275.184,267.85,273.034,268.899,273.034,268.899z"/>
	</g>
</g>
<g>
	<path class="st13" d="M177.876,280.489c0,2.305-1.493,4.173-1.493,4.173s-1.493-1.868-1.493-4.173c0-2.305,1.493-4.173,1.493-4.173
		S177.876,278.184,177.876,280.489z"/>
	<g>
		<path class="st14" d="M176.383,276.316c0,0-0.023,0.03-0.063,0.083c0.364,0.75,0.719,1.765,0.719,2.889
			c0,2.021-1.147,3.706-1.43,4.09c0.383,0.789,0.774,1.284,0.774,1.284s1.493-1.868,1.493-4.173S176.383,276.316,176.383,276.316z"
			/>
	</g>
</g>
<g>
	<path class="st13" d="M293.604,208.712c2.303,0.092,4.11,1.658,4.11,1.658s-1.926,1.417-4.229,1.325
		c-2.303-0.092-4.11-1.658-4.11-1.658S291.301,208.62,293.604,208.712z"/>
	<g>
		<path class="st14" d="M289.374,210.037c0,0,0.029,0.025,0.081,0.066c0.764-0.334,1.793-0.648,2.915-0.603
			c2.02,0.081,3.657,1.294,4.03,1.592c0.803-0.351,1.314-0.722,1.314-0.722s-1.807-1.566-4.111-1.658
			C291.301,208.62,289.374,210.037,289.374,210.037z"/>
	</g>
</g>
<g>
	<path class="st13" d="M337.176,269.395c2.303,0.092,4.111,1.658,4.111,1.658s-1.926,1.417-4.23,1.325
		c-2.303-0.092-4.11-1.658-4.11-1.658S334.873,269.303,337.176,269.395z"/>
	<g>
		<path class="st14" d="M332.947,270.721c0,0,0.029,0.025,0.081,0.066c0.764-0.334,1.793-0.648,2.915-0.603
			c2.02,0.081,3.657,1.294,4.03,1.592c0.804-0.351,1.314-0.722,1.314-0.722s-1.807-1.566-4.111-1.658
			C334.873,269.303,332.947,270.721,332.947,270.721z"/>
	</g>
</g>
<g>
	<path class="st13" d="M303.416,310.991c2.303,0.092,4.11,1.658,4.11,1.658s-1.926,1.417-4.229,1.325
		c-2.303-0.092-4.11-1.658-4.11-1.658S301.113,310.899,303.416,310.991z"/>
	<g>
		<path class="st14" d="M299.186,312.316c0,0,0.029,0.025,0.081,0.066c0.764-0.334,1.793-0.648,2.915-0.603
			c2.02,0.081,3.657,1.294,4.03,1.592c0.803-0.351,1.314-0.722,1.314-0.722s-1.807-1.566-4.11-1.658
			C301.112,310.899,299.186,312.316,299.186,312.316z"/>
	</g>
</g>
<g>
	<path class="st13" d="M261.072,181.704c2.303,0.092,4.11,1.658,4.11,1.658s-1.926,1.417-4.23,1.325
		c-2.303-0.092-4.11-1.658-4.11-1.658S258.769,181.612,261.072,181.704z"/>
	<g>
		<path class="st14" d="M256.842,183.029c0,0,0.029,0.025,0.081,0.066c0.764-0.334,1.793-0.648,2.915-0.603
			c2.02,0.081,3.657,1.294,4.03,1.592c0.804-0.351,1.314-0.722,1.314-0.722s-1.807-1.566-4.111-1.658
			C258.769,181.612,256.842,183.029,256.842,183.029z"/>
	</g>
</g>
<g>
	<path class="st13" d="M253.028,162.793c2.303,0.092,4.11,1.658,4.11,1.658s-1.926,1.417-4.23,1.325
		c-2.303-0.092-4.11-1.658-4.11-1.658S250.725,162.701,253.028,162.793z"/>
	<g>
		<path class="st14" d="M248.799,164.118c0,0,0.029,0.025,0.081,0.066c0.764-0.334,1.793-0.648,2.915-0.603
			c2.02,0.081,3.657,1.294,4.03,1.592c0.803-0.351,1.314-0.722,1.314-0.722s-1.807-1.566-4.11-1.658
			C250.725,162.701,248.799,164.118,248.799,164.118z"/>
	</g>
</g>
<g>
	<path class="st13" d="M222.053,261.028c2.303,0.092,4.11,1.658,4.11,1.658s-1.926,1.417-4.229,1.325
		c-2.303-0.092-4.11-1.658-4.11-1.658S219.75,260.936,222.053,261.028z"/>
	<g>
		<path class="st14" d="M217.823,262.353c0,0,0.029,0.025,0.081,0.066c0.764-0.334,1.793-0.648,2.915-0.603
			c2.02,0.081,3.657,1.294,4.03,1.592c0.803-0.351,1.314-0.722,1.314-0.722s-1.807-1.566-4.11-1.658
			C219.75,260.936,217.823,262.353,217.823,262.353z"/>
	</g>
</g>
<g>
	<path class="st13" d="M216.939,295.87c2.303,0.092,4.111,1.658,4.111,1.658s-1.926,1.417-4.23,1.325
		c-2.303-0.092-4.11-1.658-4.11-1.658S214.636,295.778,216.939,295.87z"/>
	<g>
		<path class="st14" d="M212.709,297.196c0,0,0.029,0.025,0.081,0.066c0.764-0.334,1.793-0.648,2.915-0.603
			c2.02,0.081,3.657,1.294,4.03,1.592c0.804-0.351,1.314-0.722,1.314-0.722s-1.807-1.566-4.111-1.658
			C214.636,295.778,212.709,297.196,212.709,297.196z"/>
	</g>
</g>
<g>
	<g>
		<path class="st15" d="M219.279,219.127c-4.848,0-8.777,6.325-8.777,14.128s3.93,14.128,8.777,14.128
			c4.847,0,8.777-6.326,8.777-14.128S224.127,219.127,219.279,219.127z M219.279,245.566c-3.745,0-6.781-4.887-6.781-10.916
			c0-6.029,3.036-10.916,6.781-10.916c3.745,0,6.781,4.887,6.781,10.916C226.06,240.679,223.024,245.566,219.279,245.566z"/>
	</g>
	<g>
		<path class="st16" d="M219.279,217.732c-4.848,0-8.777,6.326-8.777,14.128c0,7.803,3.93,14.128,8.777,14.128
			c4.847,0,8.777-6.326,8.777-14.128C228.056,224.058,224.127,217.732,219.279,217.732z M219.279,244.171
			c-3.745,0-6.781-4.887-6.781-10.916c0-6.029,3.036-10.916,6.781-10.916c3.745,0,6.781,4.887,6.781,10.916
			C226.06,239.284,223.024,244.171,219.279,244.171z"/>
	</g>
</g>
<g>
	<g>
		<path class="st15" d="M251.949,206.496c-2.051,4.392,2.018,10.629,9.088,13.931c7.07,3.302,14.464,2.418,16.515-1.975
			c2.051-4.392-2.018-10.629-9.088-13.931C261.395,201.22,254.001,202.104,251.949,206.496z M275.905,217.683
			c-1.585,3.393-7.297,4.076-12.76,1.525s-8.606-7.37-7.021-10.763c1.585-3.393,7.297-4.076,12.76-1.525
			C274.346,209.471,277.49,214.29,275.905,217.683z"/>
	</g>
	<g>
		<path class="st17" d="M250.686,205.906c-2.051,4.392,2.018,10.629,9.088,13.931c7.07,3.302,14.464,2.418,16.515-1.974
			c2.051-4.392-2.018-10.629-9.088-13.931C260.131,200.63,252.737,201.514,250.686,205.906z M274.641,217.093
			c-1.585,3.393-7.297,4.076-12.76,1.525c-5.462-2.551-8.606-7.37-7.021-10.763c1.585-3.393,7.297-4.076,12.76-1.525
			C273.082,208.881,276.226,213.7,274.641,217.093z"/>
	</g>
</g>
<g>
	<g>
		<path class="st15" d="M233.909,187.116c1.698,2.41,7.706,1.1,13.419-2.926s8.968-9.243,7.27-11.653
			c-1.698-2.41-7.706-1.099-13.419,2.927C235.466,179.49,232.211,184.707,233.909,187.116z M253.267,173.475
			c1.312,1.862-1.203,5.893-5.616,9.003c-4.414,3.111-9.056,4.123-10.368,2.261c-1.312-1.862,1.203-5.892,5.617-9.003
			C247.313,172.626,251.955,171.613,253.267,173.475z"/>
	</g>
	<g>
		<path class="st17" d="M232.888,187.836c1.698,2.41,7.706,1.1,13.419-2.926c5.713-4.026,8.968-9.243,7.27-11.653
			c-1.698-2.41-7.706-1.099-13.419,2.927C234.444,180.209,231.19,185.426,232.888,187.836z M252.245,174.195
			c1.312,1.862-1.203,5.893-5.616,9.003c-4.414,3.11-9.056,4.123-10.368,2.261c-1.312-1.862,1.203-5.892,5.617-9.003
			C246.292,173.345,250.933,172.333,252.245,174.195z"/>
	</g>
</g>
<g>
	<g>
		<path class="st15" d="M242.015,292.671c4.184,2.448,10.77-1.026,14.711-7.761c3.941-6.735,3.744-14.179-0.44-16.627
			c-4.184-2.448-10.77,1.027-14.711,7.761C237.635,282.779,237.831,290.223,242.015,292.671z M255.368,269.852
			c3.232,1.892,3.384,7.643,0.34,12.846c-3.045,5.203-8.134,7.888-11.366,5.996c-3.232-1.891-3.384-7.643-0.339-12.846
			C247.048,270.645,252.136,267.961,255.368,269.852z"/>
	</g>
	<g>
		<path class="st17" d="M241.311,293.875c4.184,2.448,10.77-1.026,14.711-7.761c3.941-6.735,3.744-14.179-0.44-16.627
			c-4.184-2.448-10.77,1.027-14.711,7.761C236.93,283.983,237.127,291.427,241.311,293.875z M254.664,271.056
			c3.232,1.892,3.384,7.643,0.34,12.846c-3.045,5.203-8.134,7.888-11.366,5.996c-3.232-1.891-3.384-7.643-0.339-12.846
			C246.343,271.849,251.432,269.165,254.664,271.056z"/>
	</g>
</g>
<g>
	<g>
		<path class="st15" d="M296.114,266.859c3.216-3.627,1.089-10.764-4.749-15.94c-5.839-5.176-13.179-6.432-16.395-2.805
			c-3.216,3.627-1.089,10.764,4.749,15.94C285.558,269.23,292.898,270.486,296.114,266.859z M276.331,249.319
			c2.484-2.802,8.155-1.832,12.666,2.167c4.511,3.999,6.154,9.513,3.669,12.316c-2.484,2.802-8.155,1.832-12.666-2.167
			C275.489,257.635,273.846,252.121,276.331,249.319z"/>
	</g>
	<g>
		<path class="st16" d="M297.158,267.784c3.216-3.627,1.089-10.764-4.749-15.94c-5.839-5.176-13.179-6.432-16.395-2.805
			c-3.216,3.627-1.089,10.764,4.749,15.94C286.602,270.155,293.942,271.411,297.158,267.784z M277.374,250.245
			c2.484-2.802,8.155-1.832,12.666,2.167c4.511,3.999,6.154,9.513,3.669,12.316c-2.484,2.802-8.155,1.832-12.666-2.167
			S274.89,253.047,277.374,250.245z"/>
	</g>
</g>
<g>
	<g>
		<path class="st15" d="M319.01,235.919c2.405-2.713-0.283-9.023-6.005-14.096c-5.721-5.072-12.309-6.985-14.713-4.272
			c-2.405,2.713,0.283,9.023,6.005,14.096C310.017,236.719,316.605,238.631,319.01,235.919z M299.624,218.733
			c1.858-2.096,6.948-0.618,11.368,3.301c4.42,3.919,6.497,8.795,4.639,10.89c-1.858,2.096-6.947,0.618-11.368-3.301
			C299.843,225.704,297.766,220.828,299.624,218.733z"/>
	</g>
	<g>
		<path class="st16" d="M320.032,236.826c2.405-2.713-0.283-9.023-6.005-14.096c-5.721-5.072-12.309-6.985-14.713-4.272
			c-2.405,2.713,0.283,9.023,6.005,14.096C311.04,237.625,317.627,239.538,320.032,236.826z M300.647,219.639
			c1.858-2.096,6.947-0.618,11.368,3.301c4.42,3.919,6.497,8.795,4.639,10.89c-1.858,2.096-6.947,0.618-11.368-3.301
			C300.866,226.611,298.789,221.735,300.647,219.639z"/>
	</g>
</g>
<path class="st18" d="M417.385,216.382c0,24.334-9.951,47.248-12.18,47.248s4.108-22.914,4.108-47.248
	c0-24.334-11.311-45.842-9.082-45.842S417.385,192.048,417.385,216.382z"/>
<path class="st18" d="M114.649,166.798c3.366-9.274,9.825-19.405,10.909-19.012c1.084,0.393-4.428,10.849-7.794,20.123
	c-3.366,9.274-8.883,18.252-9.967,17.858C106.713,185.373,111.283,176.072,114.649,166.798z"/>
<path class="st18" d="M163.828,102.171c0,7.412-18.209,13.421-21.716,13.421c-3.507,0-6.351-6.009-6.351-13.421
	c0-7.412,4.401-16.336,6.351-13.421C153.13,105.221,163.828,94.759,163.828,102.171z"/>
<path class="st18" d="M418.033,313.878c-1.305,2.793-3.565,4.496-5.049,3.803c-1.484-0.693-1.629-3.519-0.325-6.313
	c1.305-2.793,3.565-4.496,5.049-3.803C419.192,308.259,419.338,311.085,418.033,313.878z"/>
<path class="st18" d="M239.603,412.772c-12.107-4.198-20.253-12.416-18.193-18.356c2.059-5.94,9.815,1.395,21.922,5.593
	c12.107,4.198,23.982,3.67,21.922,9.609C263.194,415.558,251.71,416.97,239.603,412.772z"/>
<g>
	<path class="st13" d="M314.028,222.73c0,2.305-1.493,4.173-1.493,4.173s-1.493-1.868-1.493-4.173c0-2.305,1.493-4.173,1.493-4.173
		S314.028,220.425,314.028,222.73z"/>
	<g>
		<path class="st14" d="M312.535,218.557c0,0-0.023,0.03-0.063,0.083c0.364,0.75,0.719,1.765,0.719,2.889
			c0,2.021-1.147,3.706-1.43,4.09c0.383,0.789,0.774,1.284,0.774,1.284s1.493-1.868,1.493-4.173
			C314.028,220.425,312.535,218.557,312.535,218.557z"/>
	</g>
</g>
<g>
	<path class="st13" d="M218.372,245.989c0,2.305-1.493,4.173-1.493,4.173s-1.493-1.868-1.493-4.173c0-2.305,1.493-4.173,1.493-4.173
		S218.372,243.684,218.372,245.989z"/>
	<g>
		<path class="st14" d="M216.879,241.816c0,0-0.023,0.03-0.063,0.083c0.364,0.75,0.719,1.765,0.719,2.889
			c0,2.021-1.147,3.706-1.43,4.09c0.383,0.789,0.774,1.284,0.774,1.284s1.493-1.868,1.493-4.173
			C218.372,243.684,216.879,241.816,216.879,241.816z"/>
	</g>
</g>
<g>
	<path class="st11" d="M438.776,284.196c-2.507,3.389-81.14,6.812-94.738-2.207c-4.034-2.675-5.74-67.774-1.007-72.121
		c0.526-0.483,3.215-3.137,4.053-3.397c19.059-5.926,83.37-0.837,90.076,4.158c15.315,11.41,10.293,55.813,4.737,69.15
		C441.403,280.964,439.235,283.575,438.776,284.196z"/>
	<path class="st5" d="M441.897,279.779c-2.507,3.389-81.14,6.812-94.738-2.207c-4.034-2.675-6.942-68.119,0.334-71.36
		c15.492-6.9,85.787-5.215,92.788,0C456.957,218.636,447.525,272.171,441.897,279.779z"/>
	<path class="st7" d="M433.885,273.219c-2.066,2.793-66.864,5.613-78.07-1.819c-3.324-2.205-5.721-56.134,0.276-58.805
		c12.767-5.686,12.049,40.038,17.817,44.335C387.65,267.168,438.524,266.949,433.885,273.219z"/>
	<path class="st8" d="M434.252,217.999c0,0.926-8.458,1.677-18.892,1.677c-10.434,0-18.892-0.751-18.892-1.677
		c0-0.926,8.458-1.677,18.892-1.677C425.794,216.322,434.252,217.073,434.252,217.999z"/>
	<path class="st10" d="M429.616,203.571c-21.994-2.905-69.694-2.895-82.123,2.641c-0.137,0.061-0.269,0.151-0.399,0.256
		c-0.003,0.001-0.007,0.002-0.01,0.003c-0.838,0.26-3.527,2.915-4.053,3.397c-4.733,4.347-3.027,69.446,1.007,72.121
		c7.233,4.797,32.864,6.074,55.654,5.709"/>
</g>
</svg>
