<?xml version="1.0" encoding="utf-8"?>
<!-- Generator: Adobe Illustrator 22.1.0, SVG Export Plug-In . SVG Version: 6.00 Build 0)  -->
<svg version="1.1" id="Layer_1" xmlns="http://www.w3.org/2000/svg" xmlns:xlink="http://www.w3.org/1999/xlink" x="0px" y="0px"
	 viewBox="0 0 400 338" style="enable-background:new 0 0 400 338;" xml:space="preserve">
<style type="text/css">
	.st0{fill:#CB9D91;}
	.st1{fill:#E4B9A6;}
	.st2{fill:#FCD4BD;}
	.st3{opacity:0.51;fill:#DBA890;}
	.st4{fill:#FEC445;}
</style>
<path class="st0" d="M213.524,98.799c-12.391-2.445-35.985-26.267-35.985-26.267s-19.486,5.969-26.499,7.432
	c-8.707,1.815-36.377,5.678-36.377,5.678c-2.408,0.503-4.767-1.043-5.268-3.451l-2.671-12.812c-0.503-2.406,1.043-4.766,3.45-5.267
	l70.483-14.697c0.081-0.017,0.165-0.026,0.247-0.038c1.426-0.823,34.884,21.734,39.619,35.596
	C222.153,89.74,218.828,99.845,213.524,98.799z"/>
<path class="st1" d="M211.401,111.884c-8.574-2.878-34.211-30.575-34.211-30.575s-19.802,4.822-26.887,5.872
	c-8.798,1.305-36.647,3.547-36.647,3.547c-2.433,0.361-4.697-1.319-5.058-3.752l-1.919-12.946c-0.36-2.433,1.32-4.698,3.752-5.058
	l71.22-10.558c0.084-0.012,0.167-0.017,0.25-0.024c1.472-0.739,33.558,23.732,37.475,37.846
	C220.722,101.088,218.559,114.287,211.401,111.884z"/>
<path class="st1" d="M232.498,78.016c-11.458-0.537-32.021-16.333-32.021-16.333s-19.126,7.035-26.046,8.883
	c-8.593,2.294-36.009,7.679-36.009,7.679c-2.376,0.635-4.815-0.778-5.45-3.155l-3.375-12.644
	c-0.634-2.376-0.251-17.275,2.125-17.909l70.592-6.107c0.081-0.021,0.164-0.035,0.245-0.052
	c1.378-0.901,36.031,19.774,41.525,33.353C245.974,76.399,239.691,78.352,232.498,78.016z"/>
<path class="st2" d="M177.317,164.413c26.354-32.214,22.804-62.707,22.804-62.707c8.626-27.592,31.358-74.725,14.425-79.22
	c-10.953-2.908-25.125,10.936-33.203,36.179c-3.325,10.388-12.722,16.247-23.715,25.161c-1.915,1.552-13.772-9.572-11.239-29.474
	c0.178-1.397,8.794-9.142,8.794-9.142c7.692,0.924,19.301-9.6,19.301-9.6c19.726,1.018,52.999-3.989,52.999-3.989
	c30.371,0,37.424-15.752,36.576-25.471c-0.543-6.224-48.393,3.46-72.481,5.254c0,0-44.887,5.914-71.134,9.73
	c0,0-15.118-1.311-21.551,4.546c-4.139,3.769-9.15,9.858-8.382,16.051c3.162,25.496,14.836,84.856,21.23,113.278
	c0.496,2.206-21.23,183.176-21.23,183.176h91.418L177.317,164.413z"/>
<path class="st3" d="M91.231,47.146c0.575,4.335,1.368,8.923,2.191,14.052c1.115-0.026,5.158-0.066,6.312-0.162
	c10.775-1.347,21.214-2.694,31.989-4.041c5.007-0.668,10.014-1.997,15.02-3.332c1.642-2.343,8.439-8.454,8.439-8.454
	c4.548,0.546,10.466-2.91,14.543-5.827c-19.249,4.287-39.232,4.986-59.216,6.5C105.6,46.41,96.14,46.97,91.231,47.146z"/>
<path class="st3" d="M248.119,25.792c-4.714,1.908-24.469,5.388-26.36-1.122c-10.309,11.138-39.976,13.133-41.211,5.051
	c-0.337,11.449-38.72,13.819-73.071,13.806c-3.384-0.001-6.735,1.684-10.102,2.357c-0.534,0.107-1.067,0.202-1.601,0.294
	c0.002,0.19,0.004,0.378,0.007,0.569c4.909-0.176,9.818-0.337,14.726-0.863c19.984-1.514,39.967-2.213,59.216-6.5
	c2.818-2.016,4.758-3.774,4.758-3.774c5.333,0.275,11.657,0.11,18.046-0.278c-0.615,0.863-1.221,1.77-1.818,2.711
	c10.074,0.732,19.953-0.288,29.803-1.573c0.118-1.381,0.163-2.688,0.122-3.907c4.217-0.546,6.846-0.942,6.846-0.942
	c21.575,0,34.556-8.13,36.47-21.411C260.606,21.05,252.746,23.919,248.119,25.792z"/>
<path class="st3" d="M148.537,73.375c-17.089,0.192-36.101-0.592-53.238-1.03c0.702,3.536,1.457,7.689,2.098,11.493
	c18.36-1.382,37.525-1.13,55.886-2.562C151.668,79.483,149.915,76.824,148.537,73.375z"/>
<polygon class="st4" points="13.257,81.324 397,72.207 396.975,68.436 13.16,66.906 "/>
<path class="st2" d="M146.565,43.116c0.498,0.06,1.05,0.08,1.645,0.066C147.788,41.844,146.565,43.116,146.565,43.116z"/>
<path class="st2" d="M214.546,22.486c-6.837-1.815-14.928,2.898-22.009,12.835c13.651-0.952,25.131-3.115,25.131-3.115
	c1.004,0,1.987-0.019,2.951-0.054C220.366,27.066,218.588,23.559,214.546,22.486z"/>
<path class="st2" d="M192.537,35.321c-4.263,5.982-8.159,13.857-11.195,23.343c-2.284,7.136-10.582,14.641-17.147,19.961
	c1.879,2.8,7.277,2.823,9.529,5.076c8.465,8.253,16.774,16.957,26.534,23.462c-0.281-3.173-0.138-5.458-0.138-5.458
	c6.566-21.005,21.305-53.332,20.498-69.554c-0.965,0.035-1.948,0.054-2.951,0.054C217.668,32.206,206.188,34.369,192.537,35.321z"/>
<path class="st3" d="M154.284,164.75c4.714,2.357,10.102,3.031,15.49,2.694c-5.051,1.01-10.102,2.694-15.49,2.694
	c4.714,1.347,9.765,1.347,14.816,1.01c8.217,18.071,9.518,42.313,11.71,124.926l-3.493-131.661c0.581-0.77,1.145-1.531,1.7-2.286
	C171.318,165.117,162.635,167.088,154.284,164.75z"/>
</svg>
